<?xml version="1.0" encoding="utf-8"?>
<!-- Generator: Adobe Illustrator 16.0.0, SVG Export Plug-In . SVG Version: 6.00 Build 0)  -->
<!DOCTYPE svg PUBLIC "-//W3C//DTD SVG 1.1//EN" "http://www.w3.org/Graphics/SVG/1.1/DTD/svg11.dtd">
<svg version="1.1" id="Layer_1" xmlns="http://www.w3.org/2000/svg" xmlns:xlink="http://www.w3.org/1999/xlink" x="0px" y="0px"
	 width="1133.86px" height="1133.86px" viewBox="0 0 1133.86 1133.86" enable-background="new 0 0 1133.86 1133.86"
	 xml:space="preserve">
<g>
	<g>
		<g>
			<path fill="#6ACAE8" d="M331.88,715.972l-12.742,46.898h-42.83l55.842-182.71h53.945l56.928,182.71h-44.457l-14.097-46.898
				H331.88z M378.234,685.068l-11.385-38.764c-2.981-10.845-6.235-24.671-8.945-35.241h-0.813
				c-2.44,10.845-5.422,24.668-8.133,35.241l-11.114,38.764H378.234z"/>
			<path fill="#6ACAE8" d="M586.993,720.31c0,17.349,0.543,31.445,1.085,42.561h-35.784l-1.896-18.704h-0.813
				c-5.151,8.131-17.62,21.683-41.476,21.683c-27.108,0-46.625-16.805-46.625-57.739v-77.799h41.204v71.293
				c0,19.247,6.234,30.904,20.873,30.904c11.386,0,18.163-7.862,20.603-14.368c1.085-2.438,1.627-5.42,1.627-8.946v-78.883h41.203
				V720.31z"/>
			<path fill="#6ACAE8" d="M620.338,673.954c0-19.519-0.272-32.257-1.085-43.644h35.24l1.627,24.67h1.083
				c6.777-19.521,22.771-27.651,35.782-27.651c3.795,0,5.692,0.268,8.677,0.81v38.768c-3.526-0.542-6.779-1.085-11.387-1.085
				c-15.181,0-25.479,7.863-28.192,20.874c-0.542,2.71-0.814,5.694-0.814,9.215v66.96h-41.203L620.338,673.954z"/>
			<path fill="#6ACAE8" d="M830.425,730.883c0,12.467,0.542,24.667,2.168,31.987h-37.138l-2.438-13.284h-0.813
				c-8.674,10.573-22.229,16.263-37.951,16.263c-26.838,0-42.833-19.515-42.833-40.661c0-34.425,30.904-50.692,77.803-50.692v-1.626
				c0-7.048-3.795-17.078-24.125-17.078c-13.556,0-27.923,4.609-36.599,9.76l-7.589-26.296c9.218-5.15,27.38-11.926,51.506-11.926
				c44.186,0,58.01,26.021,58.01,57.197V730.883z M790.576,700.249c-21.686,0-38.492,5.149-38.492,20.873
				c0,10.57,7.047,15.724,16.266,15.724c10.026,0,18.704-6.779,21.414-15.182c0.542-2.169,0.812-4.607,0.812-7.05V700.249z"/>
		</g>
		<g>
			<g>
				<path fill="#6ACAE8" d="M907.019,625.321c0,5.739-1.438,11.087-4.305,16.043c-2.871,4.954-6.789,8.863-11.74,11.716
					c-4.954,2.858-10.307,4.284-16.045,4.284c-5.713,0-11.045-1.426-16-4.284c-4.961-2.853-8.87-6.762-11.739-11.716
					c-2.87-4.956-4.308-10.304-4.308-16.043c0-5.713,1.438-11.055,4.308-16.022c2.869-4.972,6.778-8.885,11.739-11.742
					c4.955-2.852,10.287-4.284,16-4.284c5.738,0,11.091,1.433,16.045,4.284c4.951,2.857,8.869,6.771,11.74,11.742
					C905.581,614.267,907.019,619.608,907.019,625.321z M900.803,625.321c0-7.145-2.526-13.238-7.586-18.291
					c-5.045-5.056-11.152-7.581-18.288-7.581c-7.14,0-13.234,2.525-18.293,7.581c-5.046,5.053-7.577,11.146-7.577,18.291
					c0,7.14,2.531,13.234,7.577,18.289c5.059,5.055,11.153,7.581,18.293,7.581c7.136,0,13.243-2.526,18.288-7.581
					C898.276,638.556,900.803,632.461,900.803,625.321z M860.397,608.183h15.328c4.342,0,7.483,0.873,9.433,2.626
					c1.945,1.75,2.916,4.094,2.916,7.034c0,2.297-0.744,4.284-2.224,5.965c-1.483,1.679-3.825,2.896-7.018,3.652
					c1.32,0.505,2.284,1.037,2.902,1.595c0.86,0.785,1.779,1.948,2.727,3.489c0.058,0.111,1.908,3.416,5.547,9.91h-10.084
					c-3.271-6.523-5.468-10.42-6.592-11.696c-1.121-1.276-2.239-1.911-3.36-1.911c-0.252,0-0.603,0.04-1.05,0.127v13.48h-8.525
					V608.183z M868.923,622.714h3.695c2.467,0,4.201-0.397,5.207-1.196c1.008-0.799,1.513-1.828,1.513-3.088
					c0-1.259-0.476-2.286-1.449-3.087c-0.961-0.798-2.607-1.192-4.929-1.192h-4.037V622.714z"/>
			</g>
		</g>
	</g>
	<g>
		<g>
			<g>
				<g>
					<path fill="#6ACAE8" d="M425.185,424.087c0.029-5.323,0.05-10.642,0.075-15.97c0.086-0.453,0.229-0.895,0.252-1.34
						c0.514-9.88,1.913-19.628,4.476-29.17c11.869-44.196,37.897-77.565,77.414-100.387c19.035-10.994,39.659-17.341,61.546-19.501
						c3.267-0.319,6.535-0.563,9.803-0.843c5.004,0.02,10.018,0.044,15.023,0.059c0.454,0.096,0.909,0.234,1.362,0.261
						c8.921,0.509,17.741,1.769,26.438,3.82c34.558,8.169,63.518,25.672,86.43,52.777c22.317,26.408,34.701,57.028,37.422,91.526
						c0.161,2.02,0.35,4.039,0.534,6.049c-0.021,4.497-0.045,8.981-0.061,13.465c-0.092,0.564-0.234,1.122-0.261,1.68
						c-0.514,11.407-2.308,22.615-5.392,33.603c-8.666,30.758-25.072,56.704-49.077,77.701
						c-26.771,23.418-58.042,36.413-93.503,39.284c-2.07,0.163-4.136,0.357-6.2,0.543c-4.39-0.022-8.773-0.041-13.156-0.059
						c-0.451-0.087-0.901-0.226-1.365-0.252c-9.61-0.453-19.109-1.779-28.434-4.104c-43.205-10.789-76.678-35.057-100.055-72.946
						c-13.314-21.568-20.738-45.184-22.727-70.482C425.583,427.897,425.371,426,425.185,424.087z M585.408,469.112
						c29.045-0.246,52.125-23.334,51.912-51.967c-0.214-29.008-23.407-51.885-52.574-51.567
						c-28.481,0.31-51.434,23.885-50.938,53.085C534.276,446.104,557.855,469.339,585.408,469.112z M650.619,426.162
						c16.647,17.889,44.359,20.776,63.682,8.628C699.864,418.653,672.214,412.907,650.619,426.162z M482.113,495.997
						c26.693,0.71,46.958-19.045,51.116-38.923C508.818,456.038,487.062,474.028,482.113,495.997z M506.041,520.169
						c12.628-3.335,22.797-10.14,30.238-20.848c6.27-9.012,9.263-19.063,9.246-30.106
						C520.001,475.056,505.043,499.179,506.041,520.169z M650.667,409.125c10.666,6.274,22.072,8.676,34.264,6.91
						c11.561-1.672,21.405-6.826,29.686-15.142C694.454,388.218,666.801,391.797,650.667,409.125z M705.436,467.494
						c-11.688-21.959-38.13-31.434-59.287-24.754C657.309,464.145,683.45,474.246,705.436,467.494z M560.15,477.786
						c-11.23,6.333-19.175,15.434-23.633,27.481c-3.874,10.461-4.263,21.105-1.291,31.93
						C558.837,524.503,566.414,497.352,560.15,477.786z M524.927,442.005c-12.903-3.448-25.259-2.446-37.149,3.277
						c-9.696,4.674-17.106,11.807-22.491,21.198C486.804,473.175,512.834,464.086,524.927,442.005z M705.746,368.149
						c-22.126-7.048-48.418,3.389-59.34,24.257C664.537,400.848,698.493,386.962,705.746,368.149z M568.018,545.912
						c17.282-15.616,21.043-43.573,8.662-63.445C558.761,498.945,556.045,526.996,568.018,545.912z M637.575,457.56
						c5.854,24.815,29.746,40.35,50.659,39.08C683.471,474.39,661.201,456.567,637.575,457.56z M520.354,425.504
						c-21.724-13.406-49.558-7.542-63.535,8.317C476.824,446.145,504.003,442.76,520.354,425.504z M603.101,288.489
						c-19.282,18.016-19.675,46.738-8.568,63.483C612.429,335.167,614.971,307.83,603.101,288.489z M665.133,314.444
						c-13.395,3.609-23.899,10.949-31.331,22.522c-5.491,8.572-8.123,17.988-8.137,28.233
						C648.555,360.238,665.78,338.14,665.133,314.444z M456.851,399.823c17.068,18.252,45.399,20.283,63.503,8.446
						C504.259,391.131,477.155,387.389,456.851,399.823z M482.655,337.729c3.427,12.862,10.426,23.012,21.281,30.42
						c8.867,6.052,18.713,8.972,29.553,8.891C528.584,355.161,507.664,337.202,482.655,337.729z M465.638,367.145
						c6.256,10.954,15.16,18.764,26.889,23.259c10.618,4.073,21.433,4.5,32.476,1.459C512.85,369.55,486.787,360.69,465.638,367.145
						z M688.934,338.542c-12.583-0.004-23.839,3.676-33.619,11.587c-8.792,7.125-14.576,16.233-17.536,27.239
						C662.284,378.472,684.202,360.253,688.934,338.542z M610.959,356.602c24.546-13.261,30.762-41.514,24.771-59.076
						C613.571,309.45,604.621,335.519,610.959,356.602z M593.756,482.467c-6.768,11.606-8.949,23.967-6.331,37.095
						c2.051,10.329,6.958,19.159,14.491,26.627C614.944,525.251,610.298,497.857,593.756,482.467z M545.822,364.877
						c0.058-13.632-4.305-25.437-13.212-35.506c-6.921-7.816-15.512-12.933-25.665-15.61
						C505.962,337.898,523.575,359.716,545.822,364.877z M577.259,351.927c6.268-9.73,9.258-23.616,6.419-37.161
						c-2.15-10.256-6.99-19.05-14.486-26.478C556.045,309.482,560.998,336.804,577.259,351.927z M664.322,520.784
						c0.031-12.03-3.279-22.726-10.395-32.156c-7.247-9.606-16.717-15.95-28.618-19.12c-0.131,11.879,3.211,22.415,10.103,31.787
						C642.651,511.143,652.28,517.517,664.322,520.784z M560.635,356.347c6.856-22.16-3.362-48.235-24.222-59.244
						C529.831,316.992,538.023,343.892,560.635,356.347z M634.729,537.455c6.947-22.022-3.284-48.008-24.193-59.257
						C604.144,497.493,611.619,524.778,634.729,537.455z M481.295,337.647c-7.658,0.311-14.809,2.155-21.511,5.651
						c-0.32,0.171-0.552,0.834-0.534,1.255c0.322,6.953,2.036,13.568,4.981,19.883c0.505,1.07,0.982,1.392,2.233,1.061
						c7.838-2.045,15.779-2.346,23.701-0.62c3.979,0.868,7.854,2.242,11.505,3.304C491.432,360.631,484.544,350.379,481.295,337.647
						z M535.1,296.274c-0.403-0.226-0.712-0.417-1.026-0.572c-6.144-3.065-12.637-4.841-19.484-5.362
						c-1.242-0.092-1.853,0.24-2.382,1.358c-2.936,6.088-4.702,12.461-5.27,19.202c-0.106,1.184,0.2,1.592,1.342,1.903
						c8.873,2.466,16.634,6.903,23.13,13.452c2.19,2.197,4.126,4.64,6.316,7.13C532.397,321.281,531.574,308.999,535.1,296.274z
						 M569.849,287.089c4.559,4.509,8.238,9.529,10.97,15.23c2.742,5.722,4.404,11.749,5.138,18.112
						c1.587-13.016,7.044-24.082,16.458-33.242c-4.093-6.443-9.288-11.702-15.632-15.815c-0.312-0.199-1.013-0.106-1.365,0.11
						C579.151,275.522,573.984,280.676,569.849,287.089z M634.171,333.74c0.281-0.192,0.386-0.233,0.444-0.311
						c7.567-10.146,17.502-16.794,29.701-20.128c0.377-0.102,0.837-0.864,0.813-1.292c-0.437-7.001-2.179-13.66-5.266-19.967
						c-0.373-0.765-0.797-1.056-1.668-1.011c-5.135,0.269-10.142,1.19-14.958,2.999c-2.081,0.78-4.105,1.697-6.163,2.56
						C640.533,309.416,639.549,321.667,634.171,333.74z M517.013,347.928c-0.151-0.245-0.289-0.496-0.461-0.722
						c-7.34-9.675-11.031-20.571-11.004-32.721c0-0.839-0.254-1.145-1.093-1.317c-6.942-1.405-13.865-1.398-20.807-0.029
						c-0.864,0.168-1.241,0.542-1.355,1.399c-0.208,1.55-0.585,3.071-0.758,4.623c-0.64,5.721-0.457,11.416,0.844,17.135
						C495.229,336.342,506.721,340.18,517.013,347.928z M635.513,296.027c-2.289-7.34-5.968-13.794-11.089-19.426
						c-0.234-0.254-0.972-0.293-1.355-0.135c-3.168,1.317-6.438,2.462-9.415,4.145c-3.366,1.906-6.453,4.311-9.692,6.523
						c6.694,11.545,8.961,23.532,7.171,36.364C616.092,311.527,624.211,302.412,635.513,296.027z M636.039,538.133
						c4.65,3.057,15.802,6.222,21.257,5.981c0.472-0.022,1.157-0.514,1.326-0.951c1.521-3.978,3.16-7.936,4.337-12.012
						c0.828-2.905,0.988-6.004,1.444-9.004c-12.958-3.44-23.099-10.392-30.847-20.934
						C638.742,513.279,639.53,525.598,636.039,538.133z M568.696,547.309c4.104,6.418,9.223,11.618,15.463,15.681
						c0.36,0.234,1.115,0.239,1.477,0.013c6.345-4.024,11.513-9.227,15.626-15.6c-9.301-9.217-14.658-20.325-16.128-33.327
						C583.564,527.107,578.097,538.117,568.696,547.309z M603.006,547.127c0.195,0.208,0.316,0.381,0.471,0.517
						c5.368,4.857,11.503,8.395,18.353,10.744c1.019,0.35,1.418-0.166,1.937-0.755c4.533-5.142,7.942-10.941,10.237-17.412
						c0.378-1.075,0.159-1.515-0.779-2.073c-10.495-6.238-18.007-15.031-22.499-26.392c-0.096-0.242-0.158-0.497-0.266-0.734
						c-0.09-0.172-0.224-0.316-0.469-0.658C612.122,523.628,609.698,535.787,603.006,547.127z M654.111,486.509
						c0.108,0.217,0.153,0.376,0.243,0.492c7.501,9.77,11.228,20.807,11.275,33.122c0.01,0.396,0.61,1.045,1.036,1.141
						c6.969,1.496,13.968,1.463,20.941,0.014c0.458-0.097,1.045-0.718,1.147-1.19c1.476-6.8,1.526-13.631,0.321-20.496
						c-0.217-1.201-0.705-1.454-1.829-1.468c-8.376-0.094-16.341-1.953-23.737-5.89
						C660.317,490.533,657.314,488.472,654.111,486.509z M568.063,287.436c-0.108-0.188-0.162-0.349-0.27-0.452
						c-5.473-4.993-11.726-8.641-18.779-10.903c-0.371-0.121-1.117,0.175-1.374,0.521c-2.068,2.677-4.3,5.27-6.008,8.167
						c-1.988,3.388-3.491,7.05-5.23,10.641c11.827,6.776,19.896,16.234,24.606,28.584
						C558.979,310.915,561.406,298.75,568.063,287.436z M669.729,369.129c2.51-0.839,5.025-1.824,7.624-2.532
						c9.251-2.542,18.538-2.514,27.819-0.082c0.757,0.196,1.415,0.528,1.931-0.527c3.108-6.36,4.966-13.043,5.293-20.114
						c0.029-0.538-0.511-1.358-1.006-1.614c-6.042-3.132-12.474-4.935-19.256-5.539c-1.243-0.108-1.799,0.168-2.156,1.467
						c-2.621,9.357-7.49,17.382-14.55,24.049C673.592,365.974,671.603,367.535,669.729,369.129z M455.421,433.026
						c9.195-9.246,20.143-14.608,33.017-16.191c-12.889-1.632-23.848-7.071-32.912-16.324c-6.444,4.129-11.647,9.305-15.713,15.623
						c-0.207,0.321-0.168,1.018,0.048,1.352C443.895,423.765,449.053,428.914,455.421,433.026z M492.219,441.857
						c-13.052,1.948-25.226-0.422-36.586-7.112c-5.167,5.663-8.875,12.003-11.129,19.166c-0.11,0.355,0.162,1,0.47,1.29
						c1.102,1.03,2.271,1.993,3.47,2.913c4.681,3.571,9.815,6.272,15.506,8.07c3.151-5.614,7.108-10.496,11.939-14.652
						C480.747,447.345,486.217,444.175,492.219,441.857z M455.776,398.805c11.406-6.61,23.483-8.945,36.406-7.001
						c-12.132-4.861-21.419-12.913-27.787-24.206c-0.203-0.02-0.32-0.064-0.415-0.033c-7.124,2.206-13.419,5.906-18.938,10.906
						c-0.26,0.236-0.421,0.846-0.32,1.179C446.99,386.815,450.672,393.156,455.776,398.805z M654.928,348.677
						c0.202-0.132,0.418-0.246,0.61-0.392c9.679-7.338,20.607-10.946,32.728-11c0.895,0,1.248-0.262,1.429-1.17
						c1.331-6.789,1.351-13.552,0.087-20.354c-0.198-1.062-0.638-1.468-1.643-1.668c-6.668-1.321-13.333-1.465-20.043-0.261
						c-1.208,0.221-1.608,0.608-1.608,1.863c-0.016,6.318-1.239,12.425-3.495,18.326
						C660.99,339.275,658.175,344.047,654.928,348.677z M706.812,467.057c0.211,0.008,0.316,0.03,0.408,0
						c7.065-2.234,13.334-5.86,18.796-10.868c0.327-0.296,0.481-1.15,0.303-1.582c-1.365-3.253-2.604-6.604-4.336-9.67
						c-1.829-3.237-4.149-6.191-6.276-9.29c-11.491,6.689-23.406,9.046-36.193,7.252C691.42,447.848,700.569,455.86,706.812,467.057
						z M534.062,537.897c-1.691-6.128-2.342-12.199-1.915-18.395c0.43-6.239,1.967-12.181,4.332-17.977
						c-7.878,10.206-18.058,16.845-30.56,20.019c0.372,7.598,2.207,14.694,5.624,21.365c0.17,0.33,0.826,0.595,1.246,0.576
						C520.244,543.216,527.274,541.336,534.062,537.897z M683.31,417.721c12.645,1.771,23.429,7.156,32.362,16.36
						c5.647-3.58,10.435-8.029,14.239-13.479c2.441-3.501,2.449-2.082-0.019-5.617c-3.769-5.405-8.494-9.845-14.071-13.438
						C706.809,410.662,696.007,416.025,683.31,417.721z M706.195,468.773c-12.443,3.402-24.427,2.599-36.189-2.231
						c0.626,0.663,1.297,1.195,1.956,1.754c0.715,0.61,1.438,1.212,2.125,1.851c7.573,7.026,12.696,15.525,15.392,25.494
						c0.187,0.687,0.266,1.214,1.261,1.16c7.12-0.442,13.886-2.203,20.235-5.458c0.438-0.229,0.863-1.022,0.84-1.529
						c-0.118-2.079-0.306-4.163-0.65-6.211C710.296,478.438,708.669,473.512,706.195,468.773z M535.659,538.564
						c1.526,5.218,4.433,11.2,7.919,15.534c4.329,5.389,2.182,4.845,8.658,2.349c5.496-2.11,10.334-5.341,14.747-9.386
						c-6.454-11.1-8.765-22.956-7.036-35.647C554.952,523.252,546.902,532.292,535.659,538.564z M481.651,497.352
						c-1.624,7.433-1.699,14.681-0.132,21.912c0.103,0.478,0.837,1.086,1.341,1.152c3.556,0.467,7.126,1.073,10.707,1.122
						c3.655,0.048,7.315-0.496,11.026-0.781c-0.12-13.093,3.833-24.398,11.42-34.513c-5.04,3.687-10.389,6.548-16.248,8.458
						C493.917,496.615,487.914,497.477,481.651,497.352z M715.601,399.823c0.458-0.506,0.842-0.918,1.214-1.35
						c4.273-5.025,7.462-10.653,9.654-16.875c0.393-1.118,0.234-1.758-0.647-2.529c-5.01-4.362-10.607-7.701-16.833-10.042
						c-1.311-0.497-1.923-0.321-2.675,0.93c-6.027,10.084-14.52,17.366-25.348,21.933c-0.355,0.144-0.705,0.328-1.056,0.501
						C692.626,390.819,704.451,393.22,715.601,399.823z M480.567,496.182c3.271-12.596,10.023-22.57,20.133-30.37
						c-11.848,4.766-23.887,5.414-36.101,1.979c-3.474,6.62-5.293,13.514-5.844,20.777c-0.074,0.964,0.167,1.572,1.114,1.908
						c3.907,1.408,7.756,3.044,11.739,4.194C474.475,495.498,477.526,495.694,480.567,496.182z M444.087,377.535
						c5.851-5.233,12.324-8.917,19.63-11.308c-3.554-6.904-5.345-14.165-5.848-21.915c-5.866,3.34-10.693,7.493-14.772,12.51
						c-0.274,0.353-0.468,0.834-0.513,1.271C441.892,364.574,442.251,370.975,444.087,377.535z M625.473,275.744
						c5.164,5.851,8.845,12.325,11.234,19.692c6.892-3.505,14.089-5.338,21.849-5.709c-0.328-0.619-0.542-1.076-0.806-1.502
						c-2.954-4.857-6.564-9.165-10.975-12.752c-0.789-0.642-1.887-1.159-2.89-1.258C637.765,273.634,631.697,274.03,625.473,275.744
						z M665.53,522.412c-0.448,7.726-2.396,14.896-5.903,21.812c5.426,0.066,10.458-0.817,15.46-2.138
						c3.053-0.82,5.231-2.331,6.839-5.113c2.618-4.52,4.854-9.155,6.264-14.454C680.573,524.056,673.132,524.011,665.53,522.412z
						 M586.146,564.258c4.732,2.797,9.586,4.566,14.651,5.925c2.959,0.795,5.511,0.52,8.184-1.005
						c4.59-2.625,8.908-5.547,12.795-9.465c-7.379-2.445-13.781-6.213-19.522-11.391
						C597.973,554.737,592.741,560.04,586.146,564.258z M568.87,286.179c4.28-6.493,9.565-11.741,15.991-15.907
						c-0.257-0.199-0.408-0.351-0.584-0.445c-5.381-3.081-11.143-5.13-17.274-6.091c-0.67-0.108-1.465,0.035-2.092,0.306
						c-4.754,2.095-9.07,4.876-12.991,8.288c-0.848,0.742-1.645,1.536-2.604,2.435C556.717,277.232,563.096,280.964,568.87,286.179z
						 M483,311.663c3.866-0.296,7.582-0.825,11.302-0.809c3.717,0.025,7.438,0.599,11.018,0.916
						c0.683-3.578,1.17-7.304,2.142-10.905c0.967-3.576,2.426-7.017,3.683-10.565c-0.146-0.027-0.345-0.087-0.541-0.082
						c-6.261,0.088-12.325,1.21-18.162,3.459c-0.415,0.163-0.833,0.467-1.096,0.825C487.477,299.689,484.689,305.409,483,311.663z
						 M583.642,564.248c-6.517-4.262-11.726-9.631-15.951-16.051c-5.799,5.162-12.221,8.819-19.475,11.175
						c0.193,0.276,0.287,0.466,0.429,0.603c4.44,4.421,9.532,7.899,15.252,10.437c0.402,0.181,0.918,0.3,1.348,0.241
						C571.705,569.711,577.764,567.629,583.642,564.248z M690.061,498.12c1.61,7.634,1.47,15.062-0.035,22.611
						c6.479-1.713,12.189-4.425,17.387-8.197c0.471-0.35,0.895-0.931,1.056-1.481c1.022-3.658,2.114-7.308,2.887-11.023
						c0.496-2.4,0.496-4.915,0.755-7.731C704.987,495.846,697.834,497.719,690.061,498.12z M622.813,275.141
						c-0.053-0.192-0.053-0.321-0.108-0.387c-0.474-0.479-0.947-0.965-1.447-1.426c-3.934-3.637-8.3-6.655-13.199-8.838
						c-0.977-0.437-2.216-0.65-3.268-0.484c-4.914,0.778-9.622,2.3-14.096,4.5c-1.035,0.51-2.041,1.085-3.23,1.723
						c6.56,4.324,11.758,9.659,15.957,16.053C609.225,281.132,615.637,277.46,622.813,275.141z M535.52,294.972
						c2.427-7.368,6.188-13.788,11.283-19.485c-4.847-1.72-14.726-2.566-19.323-1.664c-0.484,0.096-0.979,0.343-1.364,0.654
						c-4.68,3.756-8.587,8.191-11.72,13.319c-0.196,0.326-0.348,0.688-0.605,1.206C521.499,289.486,528.632,291.428,535.52,294.972z
						 M624.544,559.159c5.9,1.657,11.941,2.157,18.056,1.604c1.047-0.094,2.239-0.61,3.008-1.315
						c2.389-2.173,4.739-4.416,6.843-6.858c1.844-2.121,3.34-4.547,5.175-7.105c-8.05-0.466-15.199-2.481-21.775-5.816
						c-1.663,3.466-3.053,6.915-4.898,10.096C629.078,552.991,626.752,555.956,624.544,559.159z M545.666,558.748
						c-5.218-5.855-8.839-12.353-11.246-19.566c-6.93,3.46-14.089,5.278-21.722,5.655c0.105,0.312,0.15,0.502,0.243,0.668
						c3.149,5.491,7.222,10.185,12.144,14.164c0.299,0.25,0.721,0.447,1.099,0.496C532.667,560.927,539.064,560.495,545.666,558.748
						z M481.13,313.738c-6.519,1.721-12.227,4.429-17.412,8.208c-0.51,0.37-0.941,1.008-1.117,1.611
						c-0.991,3.449-2.053,6.89-2.772,10.401c-0.522,2.554-0.555,5.21-0.842,8.233c7.202-3.643,14.418-5.443,22.057-5.868
						C479.456,328.749,479.529,321.351,481.13,313.738z M727.216,378.604c0.161-0.286,0.295-0.448,0.34-0.637
						c1.46-5.756,2.087-11.591,1.474-17.513c-0.107-1.015-0.508-2.15-1.135-2.94c-3.57-4.473-7.876-8.165-12.747-11.183
						c-0.407-0.25-0.842-0.449-1.391-0.733c-0.427,7.783-2.43,14.891-5.874,21.707C715.188,369.751,721.559,373.497,727.216,378.604
						z M463.256,467.354c-7.241-2.425-13.642-6.151-19.35-11.316c-0.168,0.519-0.322,0.89-0.417,1.278
						c-1.425,5.72-1.936,11.511-1.301,17.371c0.081,0.779,0.418,1.624,0.902,2.234c3.593,4.537,7.924,8.266,12.824,11.336
						c0.456,0.282,0.936,0.519,1.478,0.821C458.468,479.345,458.987,477.424,463.256,467.354z M727.073,457.068
						c-5.838,5.209-12.283,8.916-19.599,11.309c3.471,6.892,5.284,14.09,5.769,21.799c5.916-3.385,10.749-7.549,14.814-12.591
						c0.333-0.412,0.461-1.04,0.522-1.586C729.229,469.714,728.812,463.507,727.073,457.068z M438.625,415.519
						c4.241-6.519,9.563-11.772,16.008-16.007c-5.114-5.787-8.794-12.188-11.18-19.426c-0.277,0.206-0.459,0.312-0.6,0.451
						c-4.402,4.468-7.893,9.538-10.41,15.279c-0.197,0.455-0.324,1.021-0.251,1.502
						C433.161,403.711,435.256,409.712,438.625,415.519z M660.813,291.045c3.433,6.942,5.248,14.104,5.703,21.773
						c7.57-1.512,15.012-1.437,22.591,0.16c-1.078-4.419-2.578-8.432-4.766-12.114c-4.189-7.051-2.445-5.705-10.344-8.062
						C669.803,291.55,665.464,291.018,660.813,291.045z M442.97,453.301c1.674-3.49,3.067-6.934,4.917-10.105
						c1.874-3.222,4.191-6.177,6.385-9.355c-6.178-4.059-11.415-9.346-15.661-15.785c-2.833,4.806-4.617,9.76-5.964,14.936
						c-0.703,2.69-0.428,5.007,0.911,7.438C436.167,445.155,439.188,449.534,442.97,453.301z M504.6,521.792
						c-7.622,1.551-15.014,1.42-22.382-0.122c-0.045,0.263-0.096,0.367-0.074,0.451c1.627,6.111,4.288,11.736,8.013,16.844
						c0.338,0.467,0.924,0.895,1.474,1.034c3.858,1.086,7.705,2.211,11.618,3.04c2.225,0.472,4.562,0.411,7.171,0.612
						C506.883,536.534,505.078,529.413,504.6,521.792z M727.734,454.635c4.845-4.824,8.461-10.134,11.084-16.119
						c0.16-0.357,0.188-0.825,0.127-1.221c-0.955-6.404-3.04-12.418-6.382-18.2c-4.253,6.497-9.558,11.792-16.005,15.98
						C721.697,440.889,725.325,447.29,727.734,454.635z M690.887,314.814c1.561,7.681,1.426,15.069-0.111,22.543
						c7.7,0.458,14.815,2.434,21.727,5.957c0-0.625,0.004-1.028,0.004-1.425c-0.037-4.773-0.918-9.404-2.125-14.01
						c-0.781-2.983-2.232-5.168-4.967-6.755C700.891,318.504,696.263,316.217,690.887,314.814z M716.714,400.559
						c6.471,4.277,11.634,9.573,15.855,15.971c3.373-5.728,5.459-11.688,6.479-18.021c0.083-0.563-0.118-1.237-0.366-1.788
						c-2.402-5.434-5.679-10.292-9.771-14.61c-0.26-0.281-0.581-0.506-0.977-0.85C725.511,388.504,721.835,394.858,716.714,400.559z
						 M458.697,491.33c-0.067,6.851,1.147,13.145,3.505,19.226c0.188,0.477,0.714,0.88,1.162,1.208
						c4.097,3.002,8.583,5.307,13.379,6.979c1.088,0.375,2.207,0.684,3.513,1.081c-1.579-7.664-1.497-15.04,0.063-22.513
						C472.698,496.776,465.613,494.886,458.697,491.33z M644.804,392.266c4.093-7.252,9.282-13.053,15.831-17.789
						c-0.289-0.046-0.407-0.099-0.48-0.071c-6.94,2.984-14.174,4.471-21.733,4.405c-0.413,0-1.116,0.593-1.185,0.995
						c-0.434,2.505-0.773,5.042-1.025,7.579c-0.054,0.431,0.314,1.153,0.688,1.33C639.462,389.94,642.086,391.054,644.804,392.266z
						 M521.74,426.041c-5.784,6.008-12.399,10.292-19.886,13.285c8.034-1.17,15.921-0.702,23.946,1.599
						c1.107-2.778,2.199-5.467,3.225-8.173c0.111-0.289-0.066-0.869-0.311-1.077C526.442,429.788,524.126,427.959,521.74,426.041z
						 M585.915,330.568c-0.924,8.059-3.506,15.495-7.771,22.614c2.406,1.788,4.718,3.545,7.079,5.228
						c0.28,0.201,0.944,0.192,1.231-0.004c2.372-1.675,4.688-3.411,7.073-5.158C589.28,346.082,586.826,338.597,585.915,330.568z
						 M592.964,481.312c-2.411-1.805-4.768-3.586-7.164-5.319c-0.223-0.167-0.762-0.183-0.979-0.027
						c-2.439,1.734-4.841,3.517-7.236,5.275c4.275,7.216,6.708,14.655,7.607,22.675
						C586.118,495.886,588.684,488.441,592.964,481.312z M594.43,481.12c6.016,5.881,10.295,12.524,13.208,20.065
						c0.1-0.241,0.129-0.442,0.1-0.644c-1.196-7.468-0.752-14.837,1.255-22.117c0.222-0.814,0.054-1.241-0.721-1.558
						c-2.321-0.924-4.61-1.931-6.938-2.809c-0.397-0.144-1.171,0.003-1.434,0.308C598.056,476.54,596.296,478.788,594.43,481.12z
						 M547.445,365.548c2.583,0.291,5.364,0.663,8.151,0.87c0.488,0.039,1.247-0.49,1.48-0.956c0.994-2.05,1.816-4.195,2.757-6.279
						c0.471-1.05,0.268-1.599-0.78-2.205c-6.158-3.562-11.339-8.266-15.597-13.973c-0.194-0.254-0.425-0.478-0.566-0.632
						c1.056,3.687,2.37,7.365,3.122,11.156C546.765,357.336,546.956,361.253,547.445,365.548z M678.626,292.675
						c-5.352-7.987-20.796-17.052-30.175-17.708c0.092,0.153,0.15,0.301,0.262,0.395c4.391,3.919,8.025,8.452,10.985,13.539
						c0.255,0.442,1.029,0.749,1.597,0.82c3.152,0.384,6.34,0.537,9.466,1.05C673.411,291.206,675.992,292.021,678.626,292.675z
						 M502.073,394.621c7.489,2.89,14.063,7.268,19.769,13.154c2.261-1.777,4.37-3.469,6.534-5.099
						c0.824-0.617,0.905-1.255,0.536-2.134c-0.864-2.063-1.718-4.133-2.518-6.228c-0.422-1.11-1.026-1.142-2.146-0.954
						c-3.94,0.686-7.904,1.391-11.891,1.633C508.96,395.196,505.521,394.772,502.073,394.621z M563.535,333.192
						c-0.088,0.452-0.158,0.592-0.141,0.714c1.166,7.539,0.729,14.967-1.264,22.335c-0.102,0.355,0.277,1.122,0.621,1.273
						c2.321,1.051,4.688,2.017,7.067,2.926c0.37,0.149,1.102,0.014,1.339-0.262c1.876-2.22,3.673-4.506,5.53-6.823
						C570.736,347.573,566.472,340.978,563.535,333.192z M524.868,355.804c-0.042,0.282-0.074,0.341-0.061,0.367
						c4.617,6.023,8.056,12.625,9.964,20.009c0.088,0.348,0.823,0.793,1.214,0.758c2.541-0.254,5.069-0.587,7.593-0.984
						c0.385-0.071,0.932-0.581,0.995-0.954c0.442-2.565,0.813-5.146,1.092-7.735c0.039-0.362-0.453-1.054-0.821-1.158
						C537.488,364.12,530.895,360.66,524.868,355.804z M499.27,416.879c7.909,0.98,15.258,3.537,22.293,7.718
						c1.791-2.393,3.541-4.714,5.24-7.079c0.189-0.257,0.25-0.854,0.082-1.091c-1.71-2.416-3.471-4.771-5.255-7.191
						C514.551,413.449,507.205,415.933,499.27,416.879z M646.599,356.889c-6.144,4.403-12.707,7.692-19.965,9.582
						c-0.366,0.102-0.862,0.779-0.835,1.144c0.234,2.482,0.533,4.969,0.951,7.43c0.082,0.497,0.729,1.174,1.207,1.266
						c2.295,0.447,4.633,0.69,6.945,1.069c1.147,0.196,1.618-0.2,1.927-1.341c1.364-5.115,3.555-9.899,6.423-14.349
						C644.307,360.05,645.478,358.491,646.599,356.889z M628.46,492.561c-0.029-0.533,0-0.689-0.052-0.822
						c-3-6.883-4.425-14.085-4.445-21.587c0-0.397-0.613-1.071-1.021-1.139c-2.517-0.414-5.049-0.725-7.584-0.977
						c-0.375-0.035-1.012,0.339-1.17,0.683c-1.09,2.37-2.116,4.761-3.065,7.187c-0.127,0.312,0.137,1.053,0.436,1.231
						C618.192,480.984,623.729,486.042,628.46,492.561z M431.722,393.781c0.332-0.426,0.471-0.551,0.547-0.711
						c2.621-5.153,5.98-9.769,10.044-13.88c0.339-0.344,0.464-1.092,0.386-1.61c-0.389-2.465-1.073-4.896-1.311-7.375
						c-0.335-3.392-0.364-6.812-0.538-10.423C433.839,370.027,430.881,381.197,431.722,393.781z M635.73,457.345
						c-2.615,0.367-5.491,0.746-8.352,1.223c-0.361,0.063-0.814,0.665-0.884,1.07c-0.411,2.465-0.706,4.944-1.08,7.414
						c-0.142,0.941,0.285,1.244,1.129,1.467c6.823,1.833,13.005,4.957,18.581,9.296c0.369,0.277,0.745,0.548,1.074,0.785
						c-2.04-3.397-4.275-6.619-5.99-10.095C638.491,465.024,637.289,461.292,635.73,457.345z M624.345,365.847
						c-0.016-8.206,1.561-15.824,4.682-23.157c-4.86,6.393-10.778,11.48-17.936,15.428c1.152,2.703,2.22,5.293,3.378,7.855
						c0.16,0.357,0.769,0.786,1.129,0.757C618.489,366.496,621.365,366.161,624.345,365.847z M608.322,333.776
						c-3.019,7.449-7.374,13.966-13.339,19.673c1.833,2.331,3.586,4.58,5.387,6.8c0.215,0.266,0.746,0.558,0.996,0.467
						c2.811-1.02,5.588-2.114,8.379-3.185C607.511,349.471,607.153,341.687,608.322,333.776z M511.338,459.901
						c7.125-3.029,14.607-4.344,22.604-4.243c0.361-2.964,0.727-5.847,1.024-8.745c0.035-0.317-0.227-0.861-0.499-0.991
						c-2.668-1.238-5.376-2.416-7.791-3.494c-2.516,3.366-4.607,6.562-7.101,9.408C517.052,454.698,514.128,457.2,511.338,459.901z
						 M730.469,474.431c6.765-9.969,9.768-21.089,8.966-33.062c-2.708,3.786-5.135,7.835-8.24,11.291
						c-2.188,2.439-2.864,4.449-2.163,7.731C730.016,464.973,730.042,469.755,730.469,474.431z M668.419,395.464
						c-7.769,0.95-15.368,0.382-23.065-1.833c-1.102,2.742-2.184,5.395-3.184,8.056c-0.126,0.336,0.008,0.988,0.266,1.209
						c2.252,1.89,4.565,3.719,6.89,5.582C654.936,402.676,661.251,398.483,668.419,395.464z M511.021,373.684
						c0.042,0.183,0.029,0.241,0.054,0.266c6.063,4.644,11.143,10.146,14.921,16.819c0.162,0.282,0.903,0.496,1.237,0.367
						c2.329-0.879,4.648-1.81,6.91-2.863c0.434-0.205,0.864-1.03,0.83-1.534c-0.166-2.328-0.551-4.642-0.75-6.973
						c-0.109-1.226-0.687-1.494-1.82-1.49c-6.272,0.069-12.315-1.142-18.172-3.322C513.175,374.562,512.144,374.125,511.021,373.684
						z M641.891,562.356c-0.444-0.109-0.578-0.167-0.715-0.161c-5.82,0.284-11.547-0.285-17.192-1.79
						c-0.444-0.121-1.147,0.221-1.564,0.553c-2.063,1.673-3.97,3.555-6.119,5.095c-2.565,1.836-5.325,3.408-8.241,5.247
						C620.425,572.199,631.536,569.295,641.891,562.356z M649.22,426.742c-2.281,1.787-4.444,3.503-6.631,5.189
						c-0.679,0.523-0.823,1.071-0.478,1.875c0.913,2.157,1.779,4.34,2.624,6.519c0.343,0.875,0.79,1.204,1.771,0.867
						c1.132-0.376,2.329-0.585,3.503-0.821c6.139-1.223,12.319-1.283,18.554-0.46C661.264,436.911,654.87,432.615,649.22,426.742z
						 M562.602,263.147c-11.942-0.844-23.066,2.025-33.562,9.105c0.955,0.012,1.443-0.019,1.943,0.021
						c4.35,0.354,8.784,0.334,13.033,1.221c2.927,0.612,4.706,0.075,6.932-1.863C554.575,268.48,558.723,265.924,562.602,263.147z
						 M522.487,559.448c-4.388-4.139-8.112-8.736-11.097-13.917c-0.23-0.387-1.029-0.614-1.572-0.628
						c-4.924-0.149-9.764-0.809-14.491-2.225c-0.89-0.261-1.775-0.538-3.095-0.934C500.537,551.353,510.441,557.227,522.487,559.448
						z M671.266,417.498c-7.715-0.886-14.906-3.446-21.77-7.549c-1.774,2.373-3.5,4.655-5.163,6.987
						c-0.213,0.291-0.289,0.954-0.105,1.214c1.668,2.381,3.409,4.716,4.981,6.862c3.781-1.638,7.182-3.386,10.756-4.596
						C663.599,419.18,667.405,418.468,671.266,417.498z M523.864,274.427c-12.106,2.146-22.123,7.912-30.125,17.23
						c5.825-1.791,11.746-2.756,17.823-2.756c0.332,0,0.813-0.275,0.978-0.562C515.58,283.106,519.411,278.551,523.864,274.427z
						 M609.632,263.544c5.3,2.86,10.092,6.308,14.323,10.552c0.295,0.296,1.031,0.367,1.497,0.25
						c4.84-1.184,9.734-1.792,14.713-1.636c0.908,0.03,1.808,0.01,3.149,0.016C632.878,265.639,621.809,262.592,609.632,263.544z
						 M560.087,476.343c-1.175-2.736-2.279-5.363-3.455-7.962c-0.15-0.321-0.72-0.691-1.058-0.661
						c-2.892,0.252-5.774,0.597-8.757,0.92c0.101,8.101-1.459,15.614-4.497,22.872C547.111,485.274,552.907,480.282,560.087,476.343
						z M528.29,561.743c9.977,7.111,21.036,10.144,33.271,9.368c-0.127-0.269-0.143-0.407-0.205-0.429
						c-5.261-2.654-9.962-6.071-14.141-10.229c-0.322-0.324-1.121-0.418-1.627-0.295c-5.305,1.298-10.681,1.851-16.139,1.589
						C529.068,561.731,528.68,561.747,528.29,561.743z M524.993,477.42c6.202-4.617,13.045-7.837,20.666-9.7
						c-0.418-2.892-0.776-5.564-1.209-8.231c-0.074-0.445-0.425-1.136-0.741-1.189c-2.949-0.549-5.908-0.967-8.802-1.423
						C531.397,467.502,531.141,468.027,524.993,477.42z M460.693,324.432c-9.36,7.905-15.189,17.859-17.416,29.9
						c0.391-0.21,0.672-0.505,0.943-0.803c3.38-3.667,7.135-6.909,11.455-9.388c1.645-0.944,2.256-1.962,2.264-3.875
						C457.978,334.871,459.076,329.617,460.693,324.432z M568.934,262.574c4.907,1.146,9.713,2.606,14.038,5.148
						c2.32,1.358,3.993,1.288,6.427,0.115c4.5-2.157,9.318-3.663,13.834-5.374C592.043,258.539,580.516,258.461,568.934,262.574z
						 M489.296,295.05c-10.4,4.414-23.447,17.512-24.808,24.737c4.741-3.122,9.763-5.523,15.188-6.96
						c1.314-0.346,1.961-0.91,2.32-2.255C483.455,305.109,485.933,300.076,489.296,295.05z M728.337,355.935
						c-0.663-9.613-10.35-26.433-17.349-30.335c1.741,5.294,2.802,10.643,2.771,16.146c-0.016,1.724,0.542,2.658,2.031,3.53
						C720.498,348.009,724.535,351.6,728.337,355.935z M647.201,560.206c12.239-2.342,22.173-8.087,30.109-17.333
						c-4.892,1.412-9.82,2.602-14.899,2.526c-2.674-0.041-4.302,0.789-5.455,3.214c-0.749,1.571-1.932,2.971-3.089,4.313
						C651.796,555.319,649.599,557.608,647.201,560.206z M602.304,571.8c-6.058-1.257-11.677-3.374-16.949-6.452
						c-0.312-0.176-0.961,0.042-1.383,0.232c-2.265,1.05-4.447,2.31-6.784,3.184c-3.141,1.174-6.391,2.058-9.52,3.036
						C575.417,575.905,595.053,575.971,602.304,571.8z M730.547,361.308c-0.028,0.332-0.062,0.573-0.055,0.813
						c0.225,5.656-0.35,11.229-1.81,16.709c-0.136,0.498,0.201,1.281,0.562,1.724c1.508,1.868,3.247,3.551,4.624,5.494
						c1.976,2.779,3.717,5.721,5.518,8.527C741.318,386.148,736.477,367.657,730.547,361.308z M576.128,481.035
						c-1.844-2.341-3.623-4.639-5.468-6.88c-0.217-0.26-0.852-0.426-1.174-0.312c-2.679,0.972-5.324,2.02-8.053,3.063
						c2.165,7.71,2.627,15.271,1.662,22.962C566.153,492.763,570.393,486.532,576.128,481.035z M682.231,539.122
						c11.028-5.153,19.139-13.208,24.53-24.07c-0.207-0.121-0.263-0.171-0.278-0.162c-5.095,3.12-10.429,5.671-16.25,7.16
						c-0.311,0.081-0.684,0.495-0.775,0.827C687.915,528.666,685.415,534.029,682.231,539.122z M431.877,440.011
						c-1.099,12.18,1.791,23.265,8.689,33.291c-0.168-6.022,0.458-11.899,1.974-17.689c0.112-0.444-0.311-1.162-0.686-1.553
						c-3.779-3.88-6.902-8.217-9.378-13.029C432.294,440.681,432.077,440.35,431.877,440.011z M442.923,479.092
						c2.158,12.002,7.896,21.983,17.108,30.084c0.066-0.218,0.137-0.324,0.108-0.396c-1.844-5.654-2.801-11.428-2.752-17.379
						c0.007-0.374-0.292-0.913-0.607-1.1C451.599,487.282,447.046,483.513,442.923,479.092z M710.381,510.28
						c9.367-8.082,15.156-17.987,17.63-30.27c-0.455,0.335-0.634,0.428-0.761,0.564c-3.85,4.237-8.249,7.778-13.186,10.676
						c-0.438,0.261-0.714,1.06-0.781,1.639c-0.34,2.945-0.439,5.923-0.922,8.843C711.912,504.532,711.096,507.274,710.381,510.28z
						 M636.973,456.101c8.008-0.022,15.418,1.384,22.546,4.329c-5.941-4.672-10.774-10.209-14.514-16.716
						c-0.158-0.27-0.913-0.457-1.262-0.324c-2.323,0.897-4.63,1.852-6.909,2.876c-0.371,0.165-0.798,0.775-0.766,1.137
						C636.305,450.248,636.645,453.091,636.973,456.101z M683.37,296.38c3.13,5.119,5.565,10.496,7.039,16.303
						c0.082,0.316,0.462,0.719,0.779,0.813c5.806,1.607,11.213,4.079,16.318,7.333C702.359,309.831,694.328,301.683,683.37,296.38z
						 M430.889,434.151c0.204-0.31,0.295-0.391,0.32-0.482c1.241-5.745,3.286-11.177,6.227-16.271
						c0.216-0.371,0.068-1.069-0.129-1.521c-1.268-2.848-2.736-5.619-3.857-8.521c-0.98-2.523-1.59-5.19-2.449-8.072
						C426.985,411.011,426.967,422.475,430.889,434.151z M740.058,435.089c4.059-11.464,4.11-22.909,0.194-34.497
						c-0.179,0.215-0.275,0.285-0.295,0.377c-1.262,5.735-3.296,11.174-6.251,16.261c-0.169,0.288-0.201,0.834-0.043,1.117
						C736.682,423.581,738.736,429.18,740.058,435.089z M463.831,513.761c5.095,11.054,13.112,19.178,24.313,24.798
						c-0.443-0.768-0.653-1.166-0.887-1.546c-2.876-4.522-4.999-9.373-6.348-14.543c-0.255-0.984-0.73-1.352-1.604-1.592
						c-4.856-1.329-9.406-3.354-13.672-6.022C465.036,514.484,464.427,514.121,463.831,513.761z M627.518,377.701
						c0.313,4.851,2.779,8.026,7.267,9.694c0.387-2.846,0.781-5.705,1.173-8.565C633.081,378.448,630.275,378.068,627.518,377.701z
						 M529.515,430.438c2.158-4.409,1.437-8.364-1.579-12.016c-1.759,2.276-3.518,4.548-5.246,6.78
						C525.006,426.983,527.265,428.718,529.515,430.438z M648.373,409.339c-2.34-1.806-4.59-3.548-6.755-5.221
						c-2.182,4.366-1.467,8.344,1.533,11.995C644.864,413.882,646.604,411.632,648.373,409.339z M623.979,467.744
						c0.382-2.881,0.758-5.72,1.146-8.611c-5.945,1.378-7.869,2.891-9.6,7.455C618.347,466.972,621.161,467.36,623.979,467.744z
						 M586.748,474.895c2.354,1.822,4.602,3.564,6.827,5.292c1.741-2.273,3.474-4.521,5.218-6.781
						C594.049,471.439,591.213,471.785,586.748,474.895z M543.666,456.802c-0.403-4.822-2.776-8.048-7.293-9.622
						c-0.387,2.845-0.763,5.653-1.137,8.467C538.077,456.038,540.842,456.41,543.666,456.802z M635.71,456.068
						c-0.369-2.853-0.725-5.665-1.095-8.51c-4.756,2.037-6.64,4.477-7.39,9.57C630.061,456.779,632.878,456.424,635.71,456.068z
						 M609.593,475.973c1.128-2.723,2.215-5.345,3.278-7.9c-4.752-0.834-8.462,0.678-11.132,4.589
						C604.346,473.762,606.932,474.848,609.593,475.973z M555.592,367.897c-2.87-0.379-5.634-0.753-8.457-1.136
						c-0.376,2.859-0.752,5.696-1.12,8.438C550.838,374.856,553.944,372.363,555.592,367.897z M558.242,366.372
						c4.746,0.885,8.442-0.626,11.133-4.541c-2.571-1.089-5.213-2.202-7.84-3.305C560.423,361.18,559.342,363.749,558.242,366.372z
						 M583.779,474.912c-4.061-3.134-8.079-3.65-11.912-1.576c1.716,2.265,3.433,4.524,5.126,6.771
						C579.264,478.363,581.517,476.65,583.779,474.912z M536.457,386.887c4.579-1.585,6.952-4.807,7.398-9.526
						c-2.777,0.344-5.601,0.696-8.477,1.054C535.735,381.231,536.087,384.044,536.457,386.887z M522.769,408.654
						c1.77,2.305,3.5,4.56,5.176,6.734c3.076-3.646,3.727-7.589,1.63-11.904C527.344,405.184,525.08,406.9,522.769,408.654z
						 M599.259,361.172c-1.713-2.257-3.421-4.522-5.144-6.79c-2.249,1.722-4.518,3.451-6.782,5.168
						C590.949,362.612,594.908,363.268,599.259,361.172z M615.835,368.189c1.589,4.666,4.884,6.903,9.522,7.328
						c-0.357-2.874-0.708-5.682-1.058-8.416C621.39,367.475,618.624,367.828,615.835,368.189z M577.533,354.292
						c-1.759,2.301-3.486,4.557-5.139,6.721c4.427,2.264,8.307,1.419,11.9-1.472C582.045,357.788,579.834,356.078,577.533,354.292z
						 M640.844,401.144c1.101-2.635,2.179-5.218,3.259-7.811c-2.625-1.103-5.237-2.208-7.827-3.292
						C635.454,394.703,636.898,398.409,640.844,401.144z M526.954,441.245c1.39,0.541,2.709,1.019,3.997,1.559
						c1.325,0.558,2.626,1.171,3.978,1.785c0.513-5.404-1.137-9.247-4.715-11.133c-0.502,1.311-0.978,2.634-1.523,3.925
						C528.157,438.672,527.557,439.929,526.954,441.245z M643.17,419.078c-3.131,3.984-3.612,7.45-1.699,11.986
						c2.288-1.749,4.567-3.489,6.852-5.244c-0.938-1.161-1.842-2.236-2.684-3.345C644.788,421.37,644.004,420.22,643.17,419.078z
						 M555.357,466.29c-1.757-4.521-5.27-7.169-9.548-7.268c0.365,2.806,0.724,5.61,1.082,8.347
						C549.799,466.998,552.572,466.642,555.357,466.29z M534.954,389.499c-2.69,1.104-5.272,2.155-7.872,3.223
						c0.604,1.352,1.196,2.616,1.73,3.918c0.542,1.311,1.026,2.642,1.556,4.008C534.501,397.208,535.708,394.265,534.954,389.499z
						 M613.214,366.683c-1.092-2.697-2.143-5.283-3.197-7.896c-2.64,1.08-5.242,2.15-7.869,3.23
						C605.517,366.134,608.383,367.335,613.214,366.683z M561.166,475.677c2.608-1.076,5.185-2.133,7.745-3.186
						c-2.68-3.766-6.233-5.546-10.935-4.667C559.024,470.413,560.087,473.035,561.166,475.677z M640.696,433.981
						c-3.829,2.757-5.468,6.77-4.485,10.979c2.578-1.057,5.157-2.104,7.693-3.149C642.819,439.16,641.757,436.571,640.696,433.981z
						 M426.603,413.908c0.567-5.438,1.556-10.774,3.477-15.921c0.387-1.02,0.446-2.21,0.45-3.321
						c0.019-3.178-0.078-6.352-0.105-9.527c0-0.461,0.14-0.923,0.174-1.396c0.031-0.457,0.003-0.925,0.003-1.387
						C428.08,392.742,426.785,403.255,426.603,413.908z M720.161,332.661c-4.849-7.875-10.879-15.812-17.775-23.09
						c-0.008,0.228,0.071,0.394,0.179,0.538c2.887,3.653,5.211,7.641,7.058,11.92c0.177,0.412,0.46,0.812,0.781,1.125
						C713.814,326.494,717.246,329.813,720.161,332.661z M744.484,422.636c-0.694,3.059-1.438,7.271-2.646,11.351
						c-0.828,2.787-1.42,5.432-1.134,8.381c0.306,3.235,0.045,6.53,0.024,9.538C742.979,442.102,744.231,431.887,744.484,422.636z
						 M468.757,524.96c-1.657-2.621-3.586-5.118-4.906-7.905c-1.662-3.494-3.77-6.447-6.774-8.926
						c-2.162-1.787-3.886-4.092-5.807-6.17C456.24,510.275,462.112,517.914,468.757,524.96z M672.516,284.147
						c2.874,3.127,5.706,6.237,8.577,9.309c0.407,0.433,1.012,0.695,1.533,1.005c3.605,2.178,7.211,4.347,10.808,6.52
						c0.273,0.159,0.55,0.337,0.818,0.503C687.576,294.944,680.318,289.183,672.516,284.147z M498.658,550.383
						c-0.154,0.139-0.309,0.287-0.469,0.423c-1.851-2.212-3.793-4.377-5.536-6.683c-1.81-2.376-3.974-4.124-6.74-5.312
						c-2.082-0.905-3.952-2.311-5.882-3.546c-1.069-0.688-2.057-1.478-3.081-2.231C483.592,539.588,490.838,545.355,498.658,550.383
						z M551.92,262.022c0.203,0.016,0.401,0.041,0.602,0.041c4.206,0.025,8.416,0.049,12.627,0.065
						c0.358,0.004,0.738,0.02,1.079-0.076c4.349-1.261,8.701-2.549,12.47-3.659C570.09,258.658,560.949,259.857,551.92,262.022z
						 M592.265,576.1c8.552-0.283,17.775-1.444,26.875-3.578c-4.526-0.148-9.042-0.168-13.557-0.188
						c-0.259,0-0.521,0.045-0.764,0.121C600.401,573.73,595.985,575.021,592.265,576.1z M578.732,576.073
						c-3.158-0.726-5.987-1.095-8.594-2.042c-3.788-1.381-7.537-2.021-11.573-1.57c-2.611,0.299-5.285,0.033-7.382,0.028
						C559.727,574.418,568.952,575.699,578.732,576.073z M658.04,558.537c-0.239,0.053-0.469,0.105-0.696,0.161
						c-3.876,1.021-7.753,2.018-11.621,3.056c-0.635,0.168-1.261,0.442-1.829,0.773c-2.542,1.526-5.042,3.129-7.607,4.626
						c-1.115,0.653-2.332,1.125-3.505,1.672C641.589,566.342,650.004,562.932,658.04,558.537z M499.8,283.433
						c-2.667,1.004-18.505,12.993-20.44,15.539c3.34-1.775,7.271-3.867,11.198-5.967c0.266-0.141,0.502-0.358,0.714-0.582
						C494.203,289.337,497.133,286.245,499.8,283.433z M737.006,369.323c-2.706-8.673-6.222-17.305-10.134-24.823
						c0.931,3.835,2.065,8.472,3.202,13.111c0.084,0.343,0.197,0.692,0.386,1C732.674,362.25,734.9,365.879,737.006,369.323z
						 M452.283,330.777c2.147-2.176,4.14-4.534,6.483-6.485c2.215-1.837,3.817-3.946,5.069-6.531
						c1.385-2.864,3.237-5.505,5.088-8.585C462.559,316.044,457.069,323.118,452.283,330.777z M512.312,558.338
						c4.028,2.599,21.552,9.846,24.073,10.078c-3.307-2.053-7.135-4.434-10.969-6.805c-0.211-0.136-0.461-0.221-0.712-0.288
						C520.428,560.29,516.153,559.26,512.312,558.338z M726.219,491.114c2.787-4.083,10.284-22.132,10.539-25.211
						c-1.177,2.204-2.163,4.67-3.679,6.744c-2.423,3.3-3.916,6.841-4.595,10.877C728.061,486.042,727.032,488.463,726.219,491.114z
						 M537.609,265.673c-4.164,0.771-22.315,8.277-23.982,9.83c3.714-0.862,7.966-1.846,12.198-2.838
						c0.348-0.083,0.696-0.221,0.994-0.401C530.594,269.97,534.353,267.66,537.609,265.673z M718.215,504.88
						c-1.833,1.675-4.197,3.988-6.74,6.078c-1.607,1.322-2.701,2.877-3.654,4.71c-1.706,3.286-3.706,6.42-5.559,9.573
						C708.296,518.702,713.832,511.701,718.215,504.88z M671.183,550.922c7.707-4.583,14.746-10.038,21.332-16.088
						c-2.557,1.506-4.96,3.299-7.625,4.518c-3.236,1.493-5.918,3.446-8.166,6.228C675.123,547.564,673.045,549.161,671.183,550.922z
						 M444.666,343.76c-2.258,2.976-9.995,21.541-10.289,24.542c1.585-2.735,3.239-5.869,5.179-8.806
						c1.203-1.819,2.01-3.632,2.45-5.775C442.72,350.285,443.796,346.93,444.666,343.76z M444.41,490.196
						c-0.913-3.475-1.992-7.579-3.056-11.689c-0.193-0.753-0.157-1.621-0.538-2.253c-2.105-3.514-4.304-6.976-6.246-10.089
						C434.8,468.906,442.229,487.031,444.41,490.196z M740.603,384.561c-0.019,4.305-0.04,8.612-0.048,12.918
						c0,0.251,0.083,0.512,0.175,0.749c1.839,4.61,2.951,9.396,3.576,14.312C744.094,403.101,742.913,393.778,740.603,384.561z
						 M426.792,423.691c0.352,8.131,1.489,17.211,3.566,26.18c0.197-4.163,0.213-8.317,0.213-12.465c0-0.396-0.158-0.803-0.27-1.2
						C429.048,431.721,427.782,427.231,426.792,423.691z M593.872,258.519c3.539,1.037,7.619,2.237,11.689,3.428
						c0.492,0.151,0.995,0.356,1.495,0.362c4.257,0.053,8.51,0.055,12.77,0.075C611.071,260.146,602.196,258.964,593.872,258.519z
						 M635.615,266.444c3.424,2.186,6.742,4.319,10.081,6.417c0.373,0.237,0.876,0.275,1.326,0.395
						c3.657,0.988,7.32,1.979,10.991,2.957c0.185,0.047,0.401,0.008,0.942,0.012C651.225,272.272,643.583,269.039,635.615,266.444z
						 M581.266,362.875c3.174,0.016,5.886,0.025,8.598,0.041c-1.104-0.895-2.224-1.547-3.376-2.133
						c-0.322-0.167-0.838-0.263-1.133-0.123C584.113,361.267,582.907,361.976,581.266,362.875z M550.29,375.822
						c-0.058-0.085-0.112-0.173-0.17-0.26c-1.291,0.376-2.582,0.718-3.859,1.134c-0.339,0.117-0.773,0.402-0.872,0.714
						c-0.471,1.356-0.845,2.747-1.24,4.132c0.067,0.056,0.142,0.108,0.216,0.167C546.337,379.743,548.315,377.782,550.29,375.822z
						 M634.876,441.045c-0.121-0.058-0.237-0.109-0.351-0.161c-1.395,2.397-2.781,4.793-4.273,7.353
						c3.414-1.012,5.113-2.91,4.558-6.311C634.758,441.643,634.847,441.339,634.876,441.045z M554.85,371.935
						c0.073,0.103,0.152,0.196,0.221,0.292c2.385-1.371,4.772-2.752,7.161-4.14c-1.48-0.221-2.778-0.273-4.06-0.21
						c-0.402,0.02-0.931,0.251-1.143,0.562C556.245,369.564,555.571,370.771,554.85,371.935z M567.339,468.464
						c0.959,1.089,1.853,2.164,2.821,3.172c0.229,0.228,0.754,0.338,1.1,0.268c1.309-0.25,2.598-0.607,3.895-0.927
						c0.024-0.116,0.046-0.227,0.066-0.348C572.568,469.906,569.924,469.169,567.339,468.464z M640.044,413.449
						c-0.089,0.022-0.165,0.041-0.252,0.057c-0.014,2.756-0.029,5.509-0.035,8.26c0.926-1.191,1.638-2.39,2.25-3.637
						c0.149-0.3,0.104-0.806-0.047-1.121C641.368,415.806,640.689,414.635,640.044,413.449z M627.051,452.629
						c-2.17,2.155-4.074,4.053-5.985,5.951c1.442-0.121,2.742-0.436,4.011-0.846c0.284-0.093,0.595-0.442,0.689-0.737
						C626.194,455.678,626.561,454.335,627.051,452.629z M608.527,466.576c1.81,0.012,3.199,0.053,4.589,0
						c0.345-0.014,0.797-0.256,0.989-0.54c0.763-1.137,1.438-2.333,2.149-3.513c-0.07-0.091-0.145-0.176-0.212-0.276
						C613.629,463.638,611.211,465.033,608.527,466.576z M603.703,468.519c-3.023,0.804-5.69,1.506-8.357,2.216
						c1.379,0.665,2.705,1.034,4.045,1.325c0.308,0.069,0.781,0.021,0.986-0.183C601.425,470.894,602.404,469.847,603.703,468.519z
						 M580.923,471.475c3.755,2.771,6.151,2.73,8.461,0.032C586.645,471.498,583.972,471.493,580.923,471.475z M567.926,365.813
						c2.508-0.668,5.188-1.376,7.876-2.099c-1.357-0.619-2.651-0.994-3.976-1.256c-0.387-0.075-0.982,0.036-1.24,0.301
						C569.646,363.724,568.804,364.784,567.926,365.813z M595.872,363.541c-0.024,0.097-0.042,0.197-0.071,0.293
						c2.683,0.739,5.364,1.467,8.039,2.205c-3.112-3.722-3.115-3.722-7.53-2.641C596.159,363.428,596.02,363.493,595.872,363.541z
						 M621.187,375.818c-0.058,0.049-0.107,0.125-0.165,0.188c1.962,2.001,3.929,4.005,6.005,6.136
						c-0.259-3.326-1.228-5.782-4.824-6.033C621.86,376.079,621.521,375.913,621.187,375.818z M534.319,435.06
						c-0.716-2.679-1.405-5.272-2.105-7.859c-0.696,1.351-1.043,2.646-1.32,3.942c-0.063,0.296,0.023,0.761,0.225,0.954
						C532.105,433.077,533.15,433.995,534.319,435.06z M637.258,399.497c-0.138,0.033-0.274,0.074-0.408,0.114
						c0.684,2.576,1.371,5.154,2.05,7.737c1.719-4.188,1.719-4.188-1.021-7.177C637.665,399.945,637.465,399.718,637.258,399.497z
						 M536.686,440.728c-0.117,0.041-0.227,0.082-0.346,0.122c-0.006,1.329-0.043,2.669,0.003,3.991
						c0.014,0.285,0.253,0.677,0.51,0.842c1.142,0.759,2.334,1.461,3.505,2.176c0.089-0.071,0.175-0.13,0.259-0.208
						C539.308,445.346,537.997,443.033,536.686,440.728z M536.306,393.311c0.123,0.044,0.247,0.098,0.372,0.15
						c1.364-2.358,2.731-4.721,4.134-7.151c-3.748,0.908-4.978,3.278-4.539,6.684C536.286,393.104,536.296,393.204,536.306,393.311z
						 M634.492,393.837c0.542-4.766-0.032-5.705-4.053-7.086C631.857,389.227,633.177,391.532,634.492,393.837z M531.379,412.776
						c-0.085-0.024-0.168-0.044-0.256-0.07c-0.719,1.291-1.451,2.572-2.144,3.877c-0.103,0.181-0.09,0.522,0.011,0.718
						c0.687,1.287,1.412,2.556,2.351,4.229C531.348,418.286,531.369,415.528,531.379,412.776z M544.118,452.308
						c0.546,4.564,1.832,5.849,6.123,6.236C548.193,456.458,546.254,454.481,544.118,452.308z M534.432,398.709
						c-3.631,2.822-4.043,4.353-2.225,8.272C532.97,404.148,533.661,401.562,534.432,398.709z M616.174,372.372
						c-1.848-4.359-2.603-4.793-7.023-4.143C611.638,369.701,613.906,371.037,616.174,372.372z M639.223,427.95
						c-0.126-0.012-0.255-0.031-0.387-0.036c-0.674,2.501-1.354,5.019-2.097,7.779c1.215-1.168,2.233-2.104,3.207-3.089
						c0.171-0.17,0.263-0.562,0.205-0.808C639.879,430.506,639.542,429.23,639.223,427.95z M554.977,462.151
						c2.088,4.452,2.612,4.746,6.957,4.082C559.469,464.782,557.22,463.467,554.977,462.151z M576.742,364.457
						c0.022,0.155,0.047,0.312,0.068,0.461c1.365-0.184,2.719-0.366,4.089-0.551c-0.03-0.168-0.055-0.336-0.086-0.505
						C579.457,364.061,578.102,364.259,576.742,364.457z M563.254,368.6c0.075,0.132,0.148,0.278,0.225,0.415
						c1.344-0.569,2.695-1.137,4.037-1.709c-0.063-0.145-0.123-0.297-0.193-0.445C565.968,367.441,564.611,368.02,563.254,368.6z
						 M590.749,363.945c-0.003,0.181-0.013,0.362-0.015,0.543c1.346,0.161,2.68,0.32,4.017,0.486
						c0.022-0.15,0.039-0.306,0.063-0.466C593.461,364.327,592.102,364.136,590.749,363.945z"/>
				</g>
			</g>
		</g>
	</g>
</g>
</svg>
