<?xml version="1.0" encoding="utf-8"?>
<!-- Generator: Adobe Illustrator 16.0.0, SVG Export Plug-In . SVG Version: 6.00 Build 0)  -->
<!DOCTYPE svg PUBLIC "-//W3C//DTD SVG 1.1//EN" "http://www.w3.org/Graphics/SVG/1.1/DTD/svg11.dtd">
<svg version="1.1" id="Layer_1" xmlns="http://www.w3.org/2000/svg" xmlns:xlink="http://www.w3.org/1999/xlink" x="0px" y="0px"
	 width="1133.86px" height="1133.86px" viewBox="0 0 1133.86 1133.86" enable-background="new 0 0 1133.86 1133.86"
	 xml:space="preserve">
<g>
	<g>
		<g>
			<path fill="#6ACAE8" d="M437.918,609.897l-12.742,46.898h-42.83l55.842-182.71h53.945l56.928,182.71h-44.457l-14.097-46.898
				H437.918z M484.272,578.994l-11.385-38.764c-2.981-10.845-6.235-24.671-8.945-35.241h-0.813
				c-2.44,10.845-5.422,24.668-8.133,35.241l-11.114,38.764H484.272z"/>
			<path fill="#6ACAE8" d="M693.031,614.235c0,17.349,0.543,31.445,1.084,42.561h-35.783l-1.896-18.704h-0.812
				c-5.151,8.131-17.621,21.683-41.477,21.683c-27.107,0-46.625-16.805-46.625-57.739v-77.799h41.204v71.293
				c0,19.247,6.234,30.904,20.872,30.904c11.387,0,18.163-7.862,20.604-14.368c1.084-2.438,1.627-5.42,1.627-8.946v-78.883h41.203
				V614.235z"/>
			<path fill="#6ACAE8" d="M726.375,567.88c0-19.519-0.271-32.257-1.084-43.644h35.24l1.627,24.67h1.082
				c6.777-19.521,22.771-27.651,35.783-27.651c3.795,0,5.691,0.268,8.676,0.81v38.768c-3.525-0.542-6.779-1.085-11.387-1.085
				c-15.18,0-25.479,7.863-28.191,20.874c-0.543,2.71-0.814,5.694-0.814,9.215v66.96h-41.203L726.375,567.88z"/>
			<path fill="#6ACAE8" d="M936.463,624.809c0,12.467,0.541,24.667,2.168,31.987h-37.139l-2.438-13.284h-0.814
				c-8.674,10.573-22.229,16.263-37.951,16.263c-26.838,0-42.832-19.515-42.832-40.661c0-34.425,30.904-50.692,77.803-50.692v-1.626
				c0-7.048-3.795-17.078-24.125-17.078c-13.557,0-27.924,4.609-36.6,9.76l-7.588-26.296c9.217-5.15,27.379-11.926,51.506-11.926
				c44.186,0,58.01,26.021,58.01,57.197V624.809z M896.613,594.175c-21.686,0-38.492,5.149-38.492,20.873
				c0,10.57,7.047,15.724,16.266,15.724c10.027,0,18.705-6.779,21.414-15.182c0.543-2.169,0.812-4.607,0.812-7.05V594.175z"/>
		</g>
		<g>
			<g>
				<path fill="#6ACAE8" d="M984.734,523.396c0,3.205-0.803,6.191-2.403,8.959c-1.604,2.767-3.791,4.949-6.556,6.542
					c-2.768,1.597-5.756,2.393-8.96,2.393c-3.19,0-6.168-0.796-8.935-2.393c-2.771-1.593-4.954-3.775-6.557-6.542
					c-1.602-2.768-2.404-5.754-2.404-8.959c0-3.19,0.803-6.173,2.404-8.947c1.603-2.776,3.786-4.961,6.557-6.557
					c2.767-1.593,5.744-2.393,8.935-2.393c3.204,0,6.192,0.8,8.96,2.393c2.765,1.596,4.952,3.78,6.556,6.557
					C983.932,517.224,984.734,520.207,984.734,523.396z M981.264,523.396c0-3.989-1.41-7.393-4.236-10.214
					c-2.817-2.823-6.228-4.233-10.212-4.233c-3.987,0-7.391,1.41-10.215,4.233c-2.818,2.821-4.232,6.225-4.232,10.214
					c0,3.987,1.414,7.391,4.232,10.213c2.824,2.823,6.228,4.233,10.215,4.233c3.984,0,7.395-1.41,10.212-4.233
					C979.854,530.787,981.264,527.384,981.264,523.396z M958.701,513.826h8.559c2.425,0,4.179,0.487,5.268,1.466
					c1.086,0.977,1.628,2.286,1.628,3.928c0,1.282-0.415,2.392-1.241,3.331c-0.829,0.938-2.137,1.617-3.919,2.04
					c0.737,0.282,1.275,0.579,1.621,0.891c0.479,0.438,0.993,1.088,1.522,1.948c0.031,0.062,1.065,1.908,3.098,5.534h-5.631
					c-1.827-3.643-3.054-5.818-3.682-6.531c-0.626-0.713-1.251-1.067-1.877-1.067c-0.141,0-0.336,0.022-0.585,0.071v7.527h-4.761
					V513.826z M963.462,521.94h2.063c1.377,0,2.346-0.222,2.907-0.668c0.562-0.446,0.845-1.021,0.845-1.724
					c0-0.703-0.266-1.277-0.81-1.724c-0.537-0.445-1.456-0.666-2.752-0.666h-2.254V521.94z"/>
			</g>
		</g>
	</g>
	<g>
		<g>
			<g>
				<g>
					<path fill="#6ACAE8" d="M170.226,571.156c0.017-3.294,0.031-6.587,0.045-9.885c0.054-0.279,0.143-0.554,0.157-0.829
						c0.318-6.115,1.184-12.148,2.771-18.054c7.346-27.355,23.456-48.009,47.914-62.134c11.781-6.805,24.546-10.734,38.093-12.07
						c2.021-0.197,4.045-0.349,6.067-0.522c3.097,0.012,6.2,0.028,9.298,0.037c0.281,0.059,0.562,0.145,0.844,0.162
						c5.521,0.314,10.98,1.094,16.363,2.364c21.39,5.056,39.314,15.89,53.495,32.666c13.813,16.345,21.478,35.296,23.162,56.649
						c0.099,1.25,0.216,2.499,0.33,3.744c-0.013,2.782-0.028,5.559-0.037,8.334c-0.057,0.35-0.146,0.694-0.162,1.04
						c-0.318,7.06-1.428,13.997-3.337,20.798c-5.364,19.037-15.519,35.096-30.375,48.092c-16.57,14.494-35.924,22.537-57.873,24.313
						c-1.281,0.101-2.56,0.222-3.838,0.337c-2.717-0.015-5.43-0.025-8.143-0.036c-0.28-0.054-0.558-0.141-0.845-0.156
						c-5.948-0.281-11.828-1.102-17.599-2.539c-26.741-6.679-47.459-21.699-61.928-45.15c-8.24-13.35-12.835-27.966-14.066-43.624
						C170.473,573.515,170.341,572.34,170.226,571.156z M269.395,599.024c17.977-0.152,32.262-14.442,32.13-32.164
						c-0.132-17.954-14.487-32.114-32.54-31.917c-17.628,0.191-31.835,14.784-31.528,32.857
						C237.746,584.784,252.34,599.164,269.395,599.024z M309.756,572.44c10.303,11.072,27.456,12.859,39.415,5.341
						C340.235,567.793,323.122,564.237,309.756,572.44z M205.461,615.665c16.521,0.439,29.064-11.788,31.638-24.092
						C221.989,590.932,208.524,602.067,205.461,615.665z M220.27,630.625c7.816-2.064,14.111-6.276,18.716-12.903
						c3.881-5.577,5.733-11.798,5.723-18.634C228.911,602.702,219.653,617.634,220.27,630.625z M309.785,561.896
						c6.602,3.883,13.662,5.369,21.207,4.276c7.156-1.034,13.249-4.224,18.374-9.371
						C336.887,548.955,319.771,551.172,309.785,561.896z M343.684,598.022c-7.234-13.592-23.6-19.456-36.695-15.322
						C313.896,595.949,330.076,602.201,343.684,598.022z M253.761,604.394c-6.95,3.919-11.868,9.552-14.627,17.007
						c-2.397,6.477-2.639,13.064-0.799,19.765C252.948,633.308,257.638,616.503,253.761,604.394z M231.96,582.246
						c-7.986-2.134-15.634-1.513-22.994,2.028c-6.001,2.894-10.588,7.308-13.92,13.121
						C208.364,601.539,224.476,595.914,231.96,582.246z M343.876,536.534c-13.695-4.362-29.968,2.098-36.728,15.013
						C318.37,556.773,339.387,548.178,343.876,536.534z M258.63,646.558c10.697-9.664,13.025-26.969,5.362-39.268
						C252.901,617.488,251.22,634.851,258.63,646.558z M301.683,591.873c3.623,15.359,18.411,24.976,31.354,24.189
						C330.089,602.29,316.306,591.261,301.683,591.873z M229.13,572.034c-13.446-8.298-30.673-4.669-39.324,5.146
						C202.187,584.81,219.009,582.714,229.13,572.034z M280.345,487.229c-11.935,11.151-12.177,28.928-5.303,39.292
						C286.119,516.12,287.691,499.2,280.345,487.229z M318.739,503.294c-8.29,2.233-14.792,6.776-19.392,13.939
						c-3.398,5.306-5.027,11.134-5.036,17.475C308.478,531.638,319.14,517.96,318.739,503.294z M189.825,556.139
						c10.564,11.297,28.1,12.555,39.305,5.227C219.168,550.759,202.392,548.442,189.825,556.139z M205.796,517.706
						c2.121,7.961,6.453,14.243,13.172,18.828c5.487,3.746,11.582,5.553,18.291,5.503
						C234.224,528.496,221.275,517.38,205.796,517.706z M195.263,535.912c3.873,6.78,9.383,11.614,16.643,14.396
						c6.572,2.522,13.266,2.785,20.101,0.903C224.485,537.402,208.354,531.917,195.263,535.912z M333.47,518.21
						c-7.788-0.003-14.755,2.275-20.808,7.172c-5.441,4.41-9.021,10.046-10.854,16.858
						C316.976,542.924,330.542,531.647,333.47,518.21z M285.208,529.387c15.193-8.208,19.04-25.694,15.332-36.564
						C286.825,500.204,281.286,516.338,285.208,529.387z M274.561,607.29c-4.188,7.184-5.539,14.833-3.918,22.96
						c1.27,6.392,4.307,11.857,8.969,16.479C287.675,633.771,284.8,616.816,274.561,607.29z M244.893,534.51
						c0.036-8.438-2.665-15.744-8.177-21.976c-4.284-4.837-9.601-8.004-15.885-9.662
						C220.222,517.811,231.124,531.315,244.893,534.51z M264.351,526.494c3.879-6.022,5.729-14.617,3.972-23
						c-1.331-6.348-4.327-11.791-8.966-16.388C251.22,500.223,254.286,517.134,264.351,526.494z M318.237,631.006
						c0.019-7.445-2.03-14.065-6.434-19.903c-4.486-5.944-10.347-9.871-17.713-11.833c-0.081,7.353,1.988,13.874,6.253,19.674
						C304.824,625.039,310.784,628.984,318.237,631.006z M254.061,529.229c4.244-13.716-2.081-29.854-14.992-36.668
						C234.995,504.871,240.066,521.521,254.061,529.229z M299.92,641.324c4.3-13.63-2.032-29.714-14.974-36.677
						C280.99,616.59,285.617,633.479,299.92,641.324z M204.955,517.656c-4.74,0.192-9.166,1.333-13.314,3.498
						c-0.198,0.105-0.342,0.516-0.331,0.777c0.199,4.303,1.26,8.397,3.083,12.306c0.312,0.663,0.608,0.862,1.381,0.656
						c4.852-1.265,9.767-1.452,14.67-0.383c2.463,0.537,4.861,1.388,7.121,2.044C211.229,531.881,206.966,525.536,204.955,517.656z
						 M238.256,492.048c-0.249-0.14-0.44-0.258-0.635-0.354c-3.803-1.896-7.822-2.996-12.06-3.318
						c-0.77-0.057-1.147,0.149-1.475,0.841c-1.817,3.768-2.91,7.713-3.262,11.884c-0.066,0.733,0.124,0.985,0.831,1.177
						c5.492,1.527,10.295,4.273,14.315,8.326c1.356,1.361,2.555,2.872,3.91,4.414C236.584,507.526,236.074,499.924,238.256,492.048z
						 M259.764,486.363c2.821,2.791,5.099,5.899,6.789,9.427c1.697,3.542,2.726,7.272,3.18,11.21
						c0.982-8.057,4.359-14.905,10.186-20.575c-2.533-3.988-5.749-7.243-9.675-9.789c-0.192-0.123-0.626-0.066-0.845,0.068
						C265.521,479.204,262.324,482.394,259.764,486.363z M299.576,515.237c0.174-0.119,0.238-0.145,0.274-0.192
						c4.684-6.28,10.833-10.395,18.383-12.458c0.233-0.063,0.518-0.534,0.504-0.8c-0.271-4.333-1.349-8.454-3.259-12.358
						c-0.231-0.473-0.493-0.653-1.032-0.626c-3.178,0.167-6.277,0.737-9.258,1.856c-1.288,0.483-2.541,1.051-3.814,1.584
						C303.513,500.182,302.904,507.765,299.576,515.237z M227.062,524.019c-0.094-0.151-0.179-0.307-0.285-0.446
						c-4.543-5.988-6.827-12.732-6.811-20.252c0-0.52-0.158-0.709-0.677-0.815c-4.296-0.87-8.582-0.866-12.878-0.018
						c-0.535,0.104-0.768,0.336-0.839,0.866c-0.128,0.959-0.362,1.9-0.469,2.861c-0.396,3.541-0.283,7.065,0.522,10.605
						C213.579,516.848,220.691,519.223,227.062,524.019z M300.406,491.895c-1.417-4.543-3.694-8.538-6.863-12.023
						c-0.145-0.157-0.602-0.182-0.839-0.083c-1.961,0.814-3.985,1.524-5.828,2.565c-2.083,1.179-3.994,2.667-5.999,4.037
						c4.144,7.146,5.546,14.565,4.438,22.508C288.386,501.489,293.411,495.847,300.406,491.895z M300.732,641.744
						c2.878,1.892,9.78,3.85,13.157,3.702c0.292-0.014,0.716-0.318,0.82-0.589c0.941-2.461,1.956-4.911,2.685-7.435
						c0.513-1.797,0.611-3.716,0.894-5.572c-8.02-2.13-14.296-6.432-19.092-12.957C302.404,626.36,302.893,633.985,300.732,641.744z
						 M259.051,647.424c2.54,3.972,5.708,7.19,9.57,9.704c0.223,0.146,0.69,0.149,0.914,0.009c3.927-2.49,7.125-5.71,9.671-9.655
						c-5.756-5.703-9.072-12.579-9.982-20.627C268.253,634.92,264.869,641.733,259.051,647.424z M280.286,647.312
						c0.121,0.128,0.195,0.236,0.291,0.318c3.323,3.007,7.12,5.196,11.36,6.65c0.629,0.217,0.877-0.103,1.198-0.468
						c2.806-3.182,4.917-6.771,6.337-10.776c0.234-0.665,0.098-0.938-0.483-1.282c-6.496-3.862-11.145-9.304-13.925-16.335
						c-0.06-0.15-0.098-0.309-0.165-0.455c-0.055-0.106-0.138-0.195-0.29-0.406C285.928,632.767,284.428,640.291,280.286,647.312z
						 M311.917,609.791c0.068,0.136,0.095,0.233,0.151,0.306c4.643,6.047,6.949,12.878,6.979,20.5
						c0.006,0.246,0.378,0.646,0.641,0.707c4.313,0.925,8.645,0.904,12.962,0.009c0.283-0.062,0.646-0.444,0.71-0.737
						c0.914-4.209,0.945-8.437,0.199-12.685c-0.135-0.744-0.437-0.9-1.132-0.91c-5.184-0.058-10.114-1.208-14.692-3.646
						C315.758,612.282,313.9,611.006,311.917,609.791z M258.659,486.578c-0.067-0.117-0.1-0.216-0.167-0.28
						c-3.387-3.09-7.257-5.349-11.623-6.748c-0.23-0.075-0.691,0.108-0.851,0.322c-1.28,1.657-2.661,3.262-3.718,5.055
						c-1.23,2.097-2.161,4.364-3.237,6.586c7.32,4.194,12.314,10.048,15.229,17.691C253.036,501.11,254.538,493.581,258.659,486.578
						z M321.583,537.141c1.554-0.519,3.111-1.128,4.719-1.567c5.726-1.573,11.474-1.556,17.218-0.051
						c0.469,0.122,0.876,0.328,1.195-0.325c1.924-3.938,3.074-8.074,3.275-12.45c0.019-0.333-0.316-0.841-0.622-0.999
						c-3.74-1.938-7.721-3.055-11.918-3.429c-0.77-0.066-1.114,0.104-1.335,0.909c-1.622,5.792-4.636,10.758-9.005,14.884
						C323.974,535.188,322.743,536.154,321.583,537.141z M188.94,576.689c5.691-5.723,12.467-9.042,20.436-10.022
						c-7.978-1.01-14.76-4.376-20.371-10.104c-3.988,2.557-7.208,5.76-9.725,9.671c-0.127,0.198-0.104,0.63,0.03,0.837
						C181.806,570.957,184.999,574.144,188.94,576.689z M211.716,582.154c-8.079,1.206-15.614-0.261-22.645-4.401
						c-3.198,3.505-5.493,7.43-6.888,11.863c-0.068,0.219,0.1,0.618,0.291,0.798c0.682,0.636,1.406,1.233,2.148,1.802
						c2.897,2.211,6.075,3.883,9.597,4.995c1.95-3.475,4.399-6.495,7.39-9.068C204.615,585.552,208,583.59,211.716,582.154z
						 M189.16,555.509c7.06-4.093,14.535-5.537,22.533-4.333c-7.509-3.009-13.257-7.992-17.198-14.982
						c-0.125-0.012-0.198-0.04-0.256-0.021c-4.41,1.367-8.306,3.655-11.722,6.751c-0.162,0.146-0.261,0.522-0.198,0.729
						C183.721,548.089,186,552.012,189.16,555.509z M312.423,524.482c0.125-0.082,0.259-0.152,0.377-0.243
						c5.99-4.542,12.754-6.774,20.256-6.808c0.554,0,0.773-0.163,0.884-0.724c0.824-4.202,0.836-8.388,0.054-12.598
						c-0.123-0.657-0.394-0.909-1.016-1.032c-4.128-0.818-8.253-0.907-12.406-0.162c-0.748,0.137-0.996,0.376-0.996,1.153
						c-0.01,3.911-0.767,7.69-2.163,11.343C316.175,518.663,314.432,521.616,312.423,524.482z M344.536,597.753
						c0.13,0.005,0.195,0.017,0.252,0c4.373-1.384,8.253-3.629,11.633-6.727c0.203-0.184,0.298-0.712,0.188-0.979
						c-0.845-2.014-1.612-4.087-2.684-5.985c-1.131-2.004-2.568-3.832-3.884-5.749c-7.113,4.14-14.487,5.598-22.402,4.487
						C335.009,585.863,340.672,590.822,344.536,597.753z M237.614,641.599c-1.047-3.794-1.45-7.551-1.185-11.387
						c0.266-3.861,1.218-7.538,2.681-11.126c-4.876,6.316-11.177,10.426-18.915,12.391c0.229,4.703,1.366,9.095,3.481,13.224
						c0.105,0.204,0.511,0.369,0.771,0.355C229.062,644.89,233.413,643.727,237.614,641.599z M329.989,567.217
						c7.827,1.097,14.501,4.43,20.03,10.125c3.496-2.216,6.459-4.969,8.814-8.343c1.511-2.166,1.516-1.288-0.012-3.477
						c-2.333-3.345-5.257-6.094-8.709-8.317C344.534,562.848,337.848,566.167,329.989,567.217z M344.154,598.814
						c-7.702,2.105-15.118,1.608-22.399-1.382c0.388,0.41,0.803,0.74,1.211,1.086c0.442,0.377,0.891,0.751,1.315,1.146
						c4.688,4.35,7.858,9.608,9.526,15.779c0.116,0.425,0.165,0.752,0.78,0.719c4.407-0.274,8.595-1.364,12.525-3.379
						c0.271-0.141,0.534-0.631,0.519-0.946c-0.072-1.286-0.188-2.576-0.402-3.844C346.692,604.797,345.685,601.748,344.154,598.814z
						 M238.603,642.012c0.945,3.229,2.744,6.932,4.901,9.614c2.68,3.335,1.351,2.998,5.359,1.454
						c3.402-1.307,6.396-3.307,9.128-5.81c-3.996-6.871-5.425-14.209-4.355-22.062C250.543,632.533,245.562,638.128,238.603,642.012
						z M205.175,616.503c-1.005,4.6-1.052,9.086-0.082,13.562c0.063,0.296,0.518,0.672,0.83,0.712
						c2.201,0.289,4.411,0.665,6.627,0.695c2.262,0.028,4.528-0.308,6.824-0.484c-0.074-8.104,2.373-15.101,7.069-21.36
						c-3.12,2.281-6.43,4.053-10.057,5.234C212.766,616.047,209.051,616.58,205.175,616.503z M349.975,556.139
						c0.284-0.313,0.521-0.568,0.752-0.835c2.644-3.111,4.618-6.594,5.975-10.445c0.243-0.692,0.145-1.087-0.401-1.565
						c-3.101-2.699-6.565-4.767-10.419-6.215c-0.811-0.308-1.19-0.199-1.655,0.575c-3.731,6.241-8.987,10.749-15.689,13.575
						c-0.22,0.09-0.436,0.203-0.653,0.311C335.756,550.564,343.075,552.052,349.975,556.139z M204.504,615.779
						c2.023-7.797,6.203-13.97,12.461-18.798c-7.334,2.95-14.785,3.352-22.344,1.225c-2.15,4.099-3.276,8.365-3.617,12.86
						c-0.045,0.598,0.104,0.972,0.689,1.181c2.418,0.872,4.8,1.885,7.266,2.597C200.733,615.355,202.622,615.477,204.504,615.779z
						 M181.925,542.343c3.621-3.238,7.628-5.518,12.15-6.998c-2.2-4.273-3.308-8.767-3.62-13.564
						c-3.631,2.067-6.619,4.638-9.143,7.744c-0.169,0.217-0.291,0.516-0.318,0.786C180.566,534.321,180.789,538.284,181.925,542.343
						z M294.192,479.341c3.196,3.621,5.474,7.628,6.953,12.188c4.265-2.17,8.72-3.304,13.523-3.534
						c-0.203-0.382-0.336-0.666-0.499-0.93c-1.829-3.006-4.063-5.672-6.792-7.893c-0.489-0.397-1.168-0.718-1.789-0.778
						C301.8,478.035,298.044,478.28,294.192,479.341z M318.985,632.014c-0.277,4.782-1.483,9.22-3.654,13.5
						c3.359,0.041,6.473-0.506,9.569-1.323c1.889-0.509,3.238-1.442,4.232-3.166c1.621-2.796,3.004-5.666,3.877-8.945
						C328.295,633.03,323.689,633.003,318.985,632.014z M269.851,657.914c2.929,1.731,5.933,2.825,9.068,3.668
						c1.831,0.492,3.41,0.32,5.065-0.623c2.841-1.624,5.514-3.433,7.919-5.858c-4.567-1.513-8.53-3.845-12.083-7.051
						C277.17,652.021,273.933,655.304,269.851,657.914z M259.158,485.8c2.649-4.019,5.92-7.267,9.897-9.846
						c-0.159-0.123-0.252-0.217-0.361-0.275c-3.331-1.908-6.897-3.176-10.692-3.771c-0.416-0.067-0.907,0.022-1.295,0.189
						c-2.942,1.296-5.614,3.018-8.041,5.129c-0.524,0.46-1.018,0.951-1.611,1.507C251.636,480.262,255.584,482.572,259.158,485.8z
						 M206.009,501.573c2.393-0.184,4.692-0.511,6.995-0.501c2.301,0.016,4.604,0.371,6.82,0.567
						c0.423-2.214,0.724-4.521,1.326-6.75c0.598-2.213,1.501-4.342,2.279-6.539c-0.09-0.017-0.213-0.053-0.334-0.05
						c-3.875,0.054-7.628,0.749-11.241,2.141c-0.257,0.101-0.516,0.289-0.678,0.51C208.781,494.162,207.055,497.702,206.009,501.573
						z M268.301,657.907c-4.034-2.639-7.257-5.961-9.873-9.935c-3.589,3.194-7.564,5.458-12.053,6.917
						c0.119,0.171,0.177,0.289,0.265,0.372c2.749,2.736,5.9,4.89,9.44,6.46c0.25,0.112,0.568,0.187,0.834,0.149
						C260.913,661.289,264.663,660.001,268.301,657.907z M334.167,616.978c0.997,4.726,0.91,9.323-0.021,13.996
						c4.01-1.061,7.544-2.739,10.761-5.074c0.291-0.216,0.553-0.576,0.653-0.916c0.633-2.265,1.308-4.523,1.786-6.822
						c0.308-1.486,0.308-3.043,0.467-4.786C343.406,615.57,338.979,616.73,334.167,616.978z M292.546,478.968
						c-0.033-0.119-0.033-0.199-0.067-0.239c-0.293-0.297-0.586-0.598-0.896-0.883c-2.435-2.25-5.137-4.119-8.17-5.47
						c-0.604-0.271-1.372-0.402-2.022-0.299c-3.042,0.482-5.956,1.423-8.725,2.785c-0.641,0.316-1.263,0.672-2,1.067
						c4.06,2.676,7.277,5.978,9.876,9.936C284.135,482.676,288.104,480.403,292.546,478.968z M238.517,491.243
						c1.501-4.561,3.83-8.535,6.983-12.061c-3-1.065-9.114-1.588-11.959-1.029c-0.299,0.06-0.606,0.212-0.844,0.404
						c-2.896,2.325-5.314,5.07-7.253,8.244c-0.122,0.202-0.216,0.426-0.375,0.746C229.838,487.847,234.253,489.049,238.517,491.243z
						 M293.617,654.759c3.651,1.023,7.391,1.333,11.175,0.991c0.647-0.058,1.385-0.376,1.861-0.812
						c1.479-1.346,2.934-2.734,4.236-4.246c1.141-1.312,2.067-2.813,3.203-4.397c-4.983-0.289-9.408-1.536-13.478-3.599
						c-1.03,2.145-1.89,4.279-3.032,6.248C296.423,650.94,294.983,652.775,293.617,654.759z M244.796,654.504
						c-3.23-3.623-5.471-7.646-6.961-12.111c-4.289,2.142-8.72,3.268-13.444,3.501c0.064,0.192,0.092,0.311,0.151,0.413
						c1.949,3.397,4.47,6.305,7.516,8.767c0.185,0.154,0.446,0.277,0.68,0.307C236.75,655.853,240.71,655.585,244.796,654.504z
						 M204.853,502.857c-4.035,1.065-7.568,2.741-10.777,5.08c-0.316,0.229-0.582,0.624-0.692,0.997
						c-0.613,2.135-1.271,4.264-1.715,6.437c-0.324,1.581-0.344,3.225-0.522,5.097c4.458-2.255,8.925-3.369,13.652-3.632
						C203.816,512.148,203.861,507.569,204.853,502.857z M357.165,543.006c0.1-0.177,0.183-0.278,0.21-0.395
						c0.904-3.562,1.292-7.174,0.913-10.84c-0.067-0.627-0.315-1.331-0.703-1.819c-2.21-2.769-4.875-5.054-7.89-6.921
						c-0.252-0.155-0.521-0.278-0.861-0.454c-0.264,4.817-1.503,9.216-3.636,13.435C349.72,537.525,353.663,539.845,357.165,543.006
						z M193.79,597.937c-4.482-1.502-8.444-3.809-11.977-7.005c-0.104,0.321-0.199,0.551-0.258,0.792
						c-0.882,3.539-1.198,7.124-0.805,10.75c0.05,0.482,0.259,1.005,0.558,1.384c2.224,2.807,4.905,5.115,7.938,7.015
						c0.282,0.176,0.579,0.322,0.915,0.51C190.826,605.357,191.146,604.169,193.79,597.937z M357.076,591.57
						c-3.614,3.224-7.603,5.518-12.131,6.998c2.148,4.267,3.271,8.722,3.571,13.492c3.662-2.094,6.653-4.672,9.169-7.792
						c0.206-0.255,0.285-0.644,0.324-0.981C358.411,599.396,358.152,595.555,357.076,591.57z M178.545,565.853
						c2.625-4.034,5.918-7.285,9.908-9.906c-3.165-3.582-5.443-7.544-6.919-12.022c-0.172,0.126-0.284,0.191-0.372,0.277
						c-2.725,2.766-4.885,5.904-6.443,9.457c-0.122,0.281-0.201,0.633-0.155,0.93C175.163,558.546,176.459,562.259,178.545,565.853z
						 M316.065,488.812c2.125,4.296,3.249,8.729,3.53,13.476c4.686-0.936,9.291-0.89,13.982,0.099
						c-0.667-2.736-1.596-5.219-2.95-7.498c-2.593-4.364-1.513-3.531-6.402-4.989C321.629,489.124,318.943,488.794,316.065,488.812z
						 M181.234,589.238c1.036-2.16,1.897-4.293,3.043-6.255c1.16-1.994,2.594-3.824,3.952-5.789
						c-3.824-2.514-7.065-5.785-9.693-9.771c-1.753,2.975-2.857,6.04-3.691,9.243c-0.435,1.666-0.265,3.101,0.564,4.604
						C177.023,584.196,178.893,586.906,181.234,589.238z M219.379,631.63c-4.718,0.96-9.293,0.879-13.853-0.075
						c-0.028,0.163-0.06,0.228-0.046,0.279c1.008,3.782,2.655,7.265,4.959,10.426c0.209,0.288,0.572,0.554,0.913,0.64
						c2.387,0.672,4.768,1.369,7.19,1.882c1.377,0.292,2.824,0.254,4.438,0.378C220.792,640.755,219.674,636.347,219.379,631.63z
						 M357.485,590.063c2.999-2.985,5.237-6.272,6.86-9.977c0.099-0.221,0.116-0.51,0.078-0.755
						c-0.591-3.964-1.881-7.686-3.95-11.266c-2.632,4.021-5.916,7.3-9.906,9.891C353.749,581.556,355.994,585.517,357.485,590.063z
						 M334.679,503.523c0.966,4.754,0.883,9.327-0.069,13.953c4.766,0.283,9.17,1.506,13.447,3.686c0-0.387,0.002-0.636,0.002-0.882
						c-0.022-2.954-0.567-5.82-1.314-8.671c-0.484-1.846-1.382-3.199-3.075-4.181C340.871,505.807,338.006,504.392,334.679,503.523z
						 M350.664,556.595c4.005,2.647,7.201,5.925,9.814,9.884c2.088-3.544,3.378-7.234,4.01-11.153
						c0.051-0.349-0.073-0.766-0.227-1.106c-1.487-3.363-3.515-6.37-6.047-9.044c-0.161-0.174-0.36-0.312-0.604-0.524
						C356.109,549.133,353.834,553.065,350.664,556.595z M190.968,612.776c-0.042,4.239,0.71,8.135,2.169,11.899
						c0.116,0.294,0.442,0.544,0.719,0.747c2.536,1.858,5.312,3.285,8.281,4.32c0.674,0.231,1.366,0.422,2.174,0.669
						c-0.977-4.743-0.927-9.31,0.039-13.935C199.633,616.146,195.248,614.977,190.968,612.776z M306.156,551.461
						c2.533-4.489,5.745-8.078,9.798-11.01c-0.179-0.029-0.252-0.062-0.297-0.044c-4.296,1.846-8.773,2.768-13.452,2.726
						c-0.255,0-0.69,0.367-0.733,0.616c-0.268,1.552-0.479,3.121-0.634,4.69c-0.033,0.268,0.194,0.715,0.425,0.823
						C302.85,550.021,304.475,550.711,306.156,551.461z M229.987,572.366c-3.58,3.717-7.675,6.37-12.308,8.222
						c4.973-0.724,9.854-0.435,14.821,0.99c0.686-1.72,1.361-3.384,1.996-5.06c0.069-0.179-0.041-0.537-0.192-0.666
						C232.897,574.685,231.464,573.555,229.987,572.366z M269.708,513.274c-0.571,4.988-2.169,9.59-4.81,13.997
						c1.489,1.106,2.92,2.194,4.381,3.235c0.173,0.125,0.584,0.119,0.762-0.002c1.468-1.036,2.902-2.11,4.377-3.192
						C271.791,522.876,270.272,518.243,269.708,513.274z M274.07,606.574c-1.492-1.116-2.951-2.219-4.434-3.291
						c-0.138-0.104-0.472-0.114-0.606-0.018c-1.51,1.075-2.997,2.178-4.479,3.266c2.646,4.467,4.152,9.071,4.708,14.035
						C269.834,615.596,271.422,610.987,274.07,606.574z M274.978,606.456c3.723,3.641,6.372,7.751,8.175,12.42
						c0.062-0.149,0.08-0.274,0.062-0.399c-0.74-4.621-0.465-9.183,0.777-13.688c0.137-0.505,0.034-0.769-0.446-0.964
						c-1.437-0.573-2.853-1.195-4.294-1.739c-0.246-0.089-0.725,0.002-0.887,0.19C277.222,603.622,276.133,605.014,274.978,606.456z
						 M245.897,534.924c1.599,0.18,3.32,0.411,5.045,0.538c0.302,0.024,0.772-0.303,0.917-0.591
						c0.615-1.269,1.125-2.597,1.707-3.887c0.291-0.649,0.166-0.988-0.483-1.364c-3.812-2.205-7.018-5.116-9.654-8.649
						c-0.12-0.158-0.263-0.295-0.351-0.391c0.654,2.282,1.467,4.559,1.933,6.905C245.476,529.842,245.595,532.266,245.897,534.924z
						 M327.09,489.82c-3.312-4.943-12.871-10.555-18.676-10.959c0.057,0.094,0.093,0.186,0.162,0.244
						c2.717,2.425,4.967,5.231,6.799,8.379c0.158,0.273,0.637,0.463,0.988,0.507c1.951,0.238,3.924,0.333,5.859,0.65
						C323.862,488.911,325.46,489.415,327.09,489.82z M217.814,552.919c4.635,1.788,8.705,4.498,12.236,8.141
						c1.399-1.1,2.704-2.146,4.044-3.155c0.509-0.381,0.56-0.776,0.332-1.321c-0.535-1.276-1.063-2.558-1.559-3.854
						c-0.261-0.687-0.635-0.706-1.328-0.59c-2.438,0.424-4.892,0.861-7.36,1.01C222.078,553.274,219.949,553.012,217.814,552.919z
						 M255.856,514.898c-0.054,0.28-0.098,0.366-0.087,0.442c0.722,4.666,0.452,9.263-0.782,13.824
						c-0.063,0.22,0.171,0.695,0.384,0.788c1.437,0.651,2.901,1.249,4.374,1.811c0.229,0.093,0.682,0.009,0.829-0.162
						c1.161-1.373,2.273-2.789,3.423-4.223C260.313,523.799,257.674,519.717,255.856,514.898z M231.923,528.893
						c-0.026,0.175-0.046,0.212-0.038,0.228c2.857,3.728,4.986,7.814,6.167,12.385c0.055,0.214,0.509,0.49,0.751,0.469
						c1.573-0.158,3.138-0.364,4.7-0.61c0.238-0.044,0.577-0.359,0.616-0.59c0.273-1.587,0.503-3.185,0.676-4.788
						c0.024-0.224-0.281-0.652-0.508-0.717C239.734,534.041,235.654,531.898,231.923,528.893z M216.08,566.695
						c4.896,0.606,9.444,2.188,13.799,4.776c1.108-1.48,2.191-2.917,3.243-4.381c0.117-0.16,0.155-0.528,0.05-0.675
						c-1.059-1.495-2.149-2.953-3.253-4.451C225.538,564.572,220.991,566.109,216.08,566.695z M307.267,529.565
						c-3.802,2.725-7.865,4.761-12.357,5.93c-0.227,0.063-0.534,0.482-0.517,0.708c0.145,1.537,0.33,3.075,0.588,4.599
						c0.051,0.308,0.452,0.727,0.747,0.783c1.42,0.276,2.868,0.427,4.299,0.662c0.71,0.12,1.001-0.124,1.193-0.831
						c0.844-3.166,2.2-6.127,3.975-8.881C305.849,531.521,306.574,530.557,307.267,529.565z M296.041,613.538
						c-0.018-0.33,0-0.427-0.032-0.509c-1.857-4.26-2.739-8.719-2.751-13.361c0-0.246-0.38-0.663-0.632-0.704
						c-1.558-0.257-3.125-0.449-4.694-0.605c-0.232-0.021-0.626,0.21-0.725,0.424c-0.674,1.466-1.31,2.945-1.897,4.448
						c-0.079,0.192,0.084,0.651,0.27,0.762C289.686,606.372,293.112,609.502,296.041,613.538z M174.271,552.398
						c0.206-0.264,0.292-0.341,0.338-0.44c1.623-3.188,3.702-6.045,6.217-8.59c0.21-0.213,0.287-0.676,0.239-0.996
						c-0.241-1.526-0.665-3.031-0.812-4.565c-0.207-2.099-0.225-4.216-0.333-6.451C175.582,537.697,173.751,544.61,174.271,552.398z
						 M300.541,591.74c-1.619,0.228-3.399,0.463-5.169,0.759c-0.224,0.038-0.504,0.41-0.547,0.661
						c-0.254,1.526-0.437,3.061-0.668,4.589c-0.087,0.583,0.177,0.77,0.699,0.908c4.223,1.135,8.049,3.067,11.501,5.754
						c0.229,0.172,0.461,0.339,0.665,0.485c-1.263-2.102-2.646-4.096-3.708-6.248C302.249,596.494,301.505,594.185,300.541,591.74z
						 M293.493,535.109c-0.009-5.078,0.966-9.793,2.898-14.332c-3.008,3.957-6.671,7.105-11.101,9.548
						c0.714,1.673,1.375,3.277,2.091,4.862c0.099,0.221,0.476,0.487,0.699,0.47C289.87,535.511,291.649,535.304,293.493,535.109z
						 M283.577,515.26c-1.868,4.61-4.564,8.644-8.256,12.177c1.135,1.442,2.22,2.834,3.334,4.208
						c0.133,0.165,0.462,0.346,0.617,0.289c1.74-0.631,3.458-1.309,5.186-1.972C283.074,524.974,282.853,520.155,283.577,515.26z
						 M223.549,593.323c4.41-1.875,9.042-2.689,13.991-2.627c0.224-1.834,0.45-3.618,0.634-5.412
						c0.022-0.195-0.14-0.533-0.309-0.612c-1.651-0.767-3.328-1.496-4.821-2.163c-1.558,2.083-2.852,4.061-4.396,5.822
						C227.086,590.104,225.276,591.651,223.549,593.323z M359.178,602.315c4.187-6.169,6.045-13.053,5.549-20.462
						c-1.676,2.343-3.178,4.849-5.101,6.987c-1.354,1.51-1.772,2.755-1.338,4.785C358.897,596.463,358.914,599.422,359.178,602.315z
						 M320.772,553.44c-4.808,0.588-9.512,0.236-14.276-1.134c-0.682,1.696-1.352,3.339-1.97,4.986
						c-0.078,0.208,0.005,0.611,0.164,0.748c1.394,1.169,2.826,2.302,4.264,3.455C312.428,557.904,316.336,555.31,320.772,553.44z
						 M223.353,539.96c0.025,0.113,0.018,0.149,0.033,0.165c3.753,2.874,6.897,6.279,9.236,10.41
						c0.101,0.175,0.559,0.308,0.766,0.228c1.441-0.544,2.877-1.12,4.277-1.772c0.269-0.126,0.535-0.638,0.514-0.949
						c-0.103-1.44-0.341-2.873-0.464-4.315c-0.067-0.759-0.425-0.925-1.126-0.923c-3.881,0.044-7.623-0.707-11.247-2.056
						C224.686,540.503,224.048,540.232,223.353,539.96z M304.353,656.736c-0.275-0.067-0.357-0.103-0.442-0.1
						c-3.603,0.176-7.146-0.176-10.641-1.108c-0.275-0.073-0.71,0.138-0.969,0.343c-1.277,1.036-2.457,2.2-3.787,3.154
						c-1.588,1.137-3.296,2.108-5.101,3.247C291.067,662.829,297.944,661.03,304.353,656.736z M308.89,572.8
						c-1.412,1.105-2.751,2.168-4.104,3.212c-0.42,0.323-0.51,0.662-0.295,1.161c0.564,1.334,1.101,2.686,1.624,4.034
						c0.212,0.542,0.489,0.746,1.097,0.536c0.701-0.232,1.442-0.362,2.168-0.508c3.8-0.758,7.625-0.794,11.484-0.285
						C316.344,579.094,312.387,576.436,308.89,572.8z M255.278,471.544c-7.392-0.522-14.277,1.253-20.773,5.635
						c0.591,0.007,0.893-0.011,1.203,0.013c2.692,0.219,5.437,0.208,8.066,0.756c1.812,0.379,2.913,0.047,4.291-1.153
						C250.31,474.845,252.877,473.264,255.278,471.544z M230.45,654.938c-2.716-2.563-5.021-5.407-6.868-8.616
						c-0.143-0.238-0.637-0.379-0.974-0.389c-3.047-0.091-6.043-0.5-8.969-1.377c-0.551-0.16-1.1-0.332-1.916-0.577
						C216.864,649.926,222.994,653.562,230.45,654.938z M322.535,567.078c-4.775-0.548-9.226-2.133-13.474-4.673
						c-1.098,1.469-2.166,2.883-3.195,4.325c-0.132,0.181-0.179,0.591-0.065,0.751c1.032,1.474,2.11,2.92,3.083,4.247
						c2.341-1.014,4.445-2.096,6.657-2.845C317.79,568.12,320.146,567.679,322.535,567.078z M231.302,478.526
						c-7.493,1.328-13.692,4.897-18.646,10.665c3.605-1.108,7.27-1.706,11.031-1.706c0.206,0,0.503-0.17,0.605-0.347
						C226.174,483.898,228.546,481.079,231.302,478.526z M284.387,471.791c3.28,1.77,6.246,3.904,8.865,6.531
						c0.183,0.183,0.639,0.228,0.927,0.155c2.996-0.733,6.025-1.109,9.106-1.013c0.562,0.018,1.119,0.006,1.949,0.009
						C298.775,473.086,291.924,471.201,284.387,471.791z M253.722,603.5c-0.727-1.694-1.41-3.319-2.138-4.929
						c-0.093-0.198-0.446-0.427-0.655-0.408c-1.79,0.155-3.574,0.369-5.42,0.569c0.063,5.015-0.903,9.663-2.783,14.156
						C245.69,609.027,249.277,605.938,253.722,603.5z M234.042,656.357c6.175,4.401,13.02,6.278,20.593,5.798
						c-0.079-0.167-0.089-0.253-0.127-0.266c-3.256-1.644-6.166-3.758-8.752-6.331c-0.199-0.2-0.694-0.259-1.007-0.183
						c-3.283,0.804-6.61,1.146-9.989,0.983C234.523,656.35,234.282,656.359,234.042,656.357z M232,604.167
						c3.839-2.857,8.075-4.852,12.791-6.004c-0.258-1.791-0.48-3.444-0.748-5.094c-0.046-0.276-0.263-0.705-0.459-0.737
						c-1.825-0.34-3.657-0.599-5.447-0.88C235.965,598.027,235.806,598.353,232,604.167z M192.203,509.476
						c-5.793,4.893-9.401,11.053-10.78,18.506c0.242-0.13,0.416-0.312,0.583-0.497c2.092-2.27,4.417-4.276,7.09-5.81
						c1.018-0.584,1.396-1.215,1.401-2.399C190.522,515.938,191.202,512.686,192.203,509.476z M259.197,471.19
						c3.038,0.709,6.012,1.613,8.689,3.187c1.436,0.841,2.471,0.797,3.978,0.071c2.785-1.335,5.767-2.267,8.562-3.326
						C273.5,468.692,266.366,468.644,259.197,471.19z M209.907,491.291c-6.438,2.732-14.513,10.839-15.355,15.311
						c2.935-1.933,6.042-3.419,9.4-4.308c0.813-0.214,1.214-0.563,1.436-1.396C206.291,497.516,207.825,494.401,209.907,491.291z
						 M357.858,528.975c-0.41-5.95-6.405-16.36-10.737-18.776c1.077,3.277,1.733,6.587,1.714,9.994
						c-0.009,1.067,0.336,1.646,1.258,2.185C353.007,524.068,355.505,526.292,357.858,528.975z M307.641,655.406
						c7.575-1.449,13.723-5.007,18.635-10.729c-3.027,0.874-6.078,1.61-9.221,1.563c-1.655-0.025-2.663,0.488-3.376,1.989
						c-0.464,0.973-1.196,1.839-1.912,2.669C310.484,652.382,309.124,653.799,307.641,655.406z M279.852,662.581
						c-3.749-0.777-7.227-2.088-10.491-3.993c-0.193-0.108-0.595,0.026-0.856,0.144c-1.401,0.651-2.752,1.431-4.199,1.972
						c-1.943,0.726-3.956,1.273-5.892,1.878C263.21,665.123,275.364,665.163,279.852,662.581z M359.226,532.3
						c-0.017,0.206-0.039,0.354-0.034,0.503c0.139,3.501-0.216,6.95-1.12,10.342c-0.084,0.308,0.125,0.793,0.348,1.066
						c0.933,1.155,2.009,2.198,2.862,3.401c1.223,1.72,2.301,3.54,3.416,5.277C365.893,547.675,362.896,536.23,359.226,532.3z
						 M263.65,606.403c-1.141-1.448-2.242-2.871-3.384-4.258c-0.134-0.162-0.527-0.266-0.727-0.193
						c-1.658,0.602-3.295,1.25-4.983,1.896c1.339,4.771,1.626,9.451,1.028,14.211C257.477,613.662,260.101,609.806,263.65,606.403z
						 M329.322,642.355c6.826-3.188,11.846-8.174,15.183-14.897c-0.128-0.074-0.162-0.105-0.172-0.1
						c-3.153,1.931-6.454,3.51-10.058,4.431c-0.192,0.05-0.423,0.307-0.48,0.512C332.84,635.885,331.292,639.204,329.322,642.355z
						 M174.368,581.012c-0.68,7.539,1.108,14.4,5.378,20.605c-0.104-3.728,0.284-7.364,1.222-10.947
						c0.069-0.276-0.192-0.72-0.425-0.961c-2.339-2.402-4.271-5.087-5.804-8.063C174.625,581.427,174.491,581.222,174.368,581.012z
						 M181.204,605.202c1.336,7.428,4.888,13.605,10.589,18.62c0.042-0.136,0.085-0.201,0.067-0.245
						c-1.141-3.5-1.734-7.074-1.703-10.758c0.004-0.23-0.181-0.564-0.376-0.681C186.575,610.271,183.757,607.938,181.204,605.202z
						 M346.745,624.505c5.797-5.003,9.38-11.133,10.912-18.734c-0.282,0.208-0.392,0.265-0.471,0.349
						c-2.382,2.623-5.105,4.814-8.161,6.607c-0.271,0.162-0.442,0.655-0.483,1.015c-0.21,1.822-0.272,3.665-0.57,5.473
						C347.692,620.947,347.187,622.644,346.745,624.505z M301.31,590.97c4.956-0.012,9.543,0.857,13.954,2.681
						c-3.677-2.893-6.668-6.318-8.983-10.346c-0.098-0.168-0.565-0.283-0.781-0.201c-1.438,0.556-2.866,1.146-4.276,1.78
						c-0.23,0.103-0.494,0.48-0.474,0.703C300.896,587.348,301.106,589.108,301.31,590.97z M330.026,492.114
						c1.938,3.168,3.445,6.496,4.357,10.09c0.051,0.196,0.286,0.445,0.482,0.503c3.593,0.995,6.94,2.524,10.1,4.539
						C341.78,500.438,336.809,495.396,330.026,492.114z M173.756,577.386c0.126-0.191,0.183-0.242,0.198-0.299
						c0.769-3.556,2.034-6.918,3.854-10.07c0.134-0.23,0.042-0.663-0.08-0.943c-0.784-1.762-1.694-3.477-2.387-5.273
						c-0.607-1.562-0.985-3.212-1.516-4.996C171.34,563.063,171.328,570.158,173.756,577.386z M365.113,577.966
						c2.512-7.095,2.543-14.18,0.12-21.352c-0.11,0.134-0.17,0.177-0.182,0.234c-0.782,3.549-2.041,6.915-3.869,10.064
						c-0.105,0.178-0.125,0.517-0.026,0.691C363.023,570.844,364.295,574.309,365.113,577.966z M194.145,626.659
						c3.153,6.842,8.116,11.87,15.049,15.348c-0.275-0.475-0.405-0.72-0.549-0.957c-1.781-2.798-3.094-5.801-3.929-9.001
						c-0.157-0.608-0.452-0.836-0.992-0.984c-3.006-0.824-5.822-2.076-8.462-3.728C194.891,627.106,194.514,626.882,194.145,626.659
						z M295.457,542.445c0.194,3.004,1.72,4.969,4.498,6.001c0.239-1.762,0.483-3.53,0.726-5.301
						C298.9,542.908,297.164,542.673,295.457,542.445z M234.799,575.087c1.335-2.729,0.889-5.177-0.977-7.438
						c-1.088,1.409-2.177,2.815-3.247,4.196C232.009,572.949,233.407,574.022,234.799,575.087z M308.366,562.028
						c-1.448-1.117-2.841-2.196-4.181-3.231c-1.35,2.701-0.908,5.164,0.949,7.424C306.194,564.84,307.271,563.447,308.366,562.028z
						 M293.267,598.177c0.237-1.783,0.469-3.54,0.709-5.329c-3.68,0.854-4.87,1.789-5.941,4.613
						C289.781,597.699,291.523,597.94,293.267,598.177z M270.223,602.604c1.457,1.128,2.849,2.206,4.226,3.274
						c1.077-1.406,2.149-2.797,3.229-4.196C274.742,600.465,272.987,600.678,270.223,602.604z M243.558,591.405
						c-0.25-2.984-1.719-4.98-4.514-5.955c-0.24,1.761-0.472,3.499-0.704,5.241C240.099,590.932,241.811,591.162,243.558,591.405z
						 M300.528,590.951c-0.228-1.766-0.448-3.507-0.678-5.268c-2.943,1.261-4.109,2.771-4.573,5.924
						C297.031,591.391,298.775,591.171,300.528,590.951z M284.363,603.271c0.698-1.685,1.371-3.308,2.029-4.89
						c-2.941-0.516-5.237,0.419-6.89,2.841C281.115,601.902,282.716,602.574,284.363,603.271z M250.939,536.378
						c-1.776-0.234-3.487-0.466-5.234-0.702c-0.233,1.77-0.466,3.525-0.692,5.222C247.997,540.686,249.92,539.142,250.939,536.378z
						 M252.58,535.435c2.938,0.547,5.226-0.388,6.891-2.811c-1.591-0.675-3.227-1.364-4.852-2.046
						C253.93,532.222,253.261,533.811,252.58,535.435z M268.386,602.614c-2.513-1.939-5-2.26-7.373-0.976
						c1.062,1.401,2.125,2.8,3.173,4.19C265.591,604.75,266.985,603.689,268.386,602.614z M239.096,548.132
						c2.833-0.981,4.303-2.975,4.579-5.896c-1.718,0.214-3.466,0.431-5.247,0.651C238.649,544.632,238.867,546.371,239.096,548.132z
						 M230.625,561.604c1.095,1.427,2.165,2.822,3.203,4.168c1.905-2.256,2.307-4.696,1.009-7.367
						C233.456,559.456,232.054,560.519,230.625,561.604z M277.967,532.217c-1.06-1.398-2.117-2.799-3.184-4.204
						c-1.392,1.066-2.796,2.136-4.198,3.199C272.824,533.107,275.274,533.513,277.967,532.217z M288.227,536.559
						c0.983,2.888,3.022,4.272,5.894,4.535c-0.221-1.778-0.438-3.516-0.655-5.208C291.665,536.117,289.953,536.335,288.227,536.559z
						 M264.52,527.958c-1.089,1.424-2.158,2.82-3.18,4.16c2.74,1.401,5.141,0.878,7.365-0.912
						C267.313,530.121,265.944,529.063,264.52,527.958z M303.705,556.956c0.682-1.631,1.349-3.229,2.018-4.834
						c-1.625-0.684-3.242-1.366-4.845-2.038C300.37,552.97,301.263,555.263,303.705,556.956z M233.214,581.776
						c0.86,0.336,1.677,0.63,2.474,0.965c0.82,0.345,1.625,0.725,2.462,1.104c0.317-3.345-0.704-5.724-2.918-6.891
						c-0.312,0.812-0.606,1.631-0.943,2.429C233.959,580.184,233.588,580.962,233.214,581.776z M305.145,568.056
						c-1.937,2.466-2.235,4.611-1.051,7.419c1.417-1.082,2.827-2.159,4.241-3.246c-0.581-0.717-1.14-1.383-1.661-2.07
						C306.146,569.475,305.661,568.763,305.145,568.056z M250.795,597.277c-1.088-2.798-3.262-4.438-5.91-4.498
						c0.226,1.738,0.448,3.472,0.669,5.166C247.354,597.715,249.07,597.495,250.795,597.277z M238.166,549.749
						c-1.665,0.682-3.263,1.334-4.873,1.994c0.375,0.836,0.74,1.62,1.072,2.426c0.335,0.811,0.634,1.635,0.962,2.48
						C237.886,554.52,238.632,552.698,238.166,549.749z M286.604,535.626c-0.676-1.669-1.326-3.27-1.979-4.887
						c-1.634,0.668-3.245,1.331-4.871,1.999C281.84,535.287,283.614,536.03,286.604,535.626z M254.39,603.088
						c1.615-0.667,3.209-1.32,4.794-1.972c-1.659-2.331-3.858-3.433-6.769-2.889C253.064,599.829,253.722,601.452,254.39,603.088z
						 M303.614,577.281c-2.37,1.705-3.384,4.189-2.776,6.794c1.596-0.654,3.192-1.303,4.762-1.948
						C304.928,580.485,304.271,578.884,303.614,577.281z M171.103,564.855c0.351-3.365,0.963-6.668,2.152-9.854
						c0.24-0.631,0.276-1.368,0.278-2.056c0.012-1.967-0.049-3.932-0.065-5.897c0-0.285,0.086-0.571,0.107-0.862
						c0.02-0.284,0.002-0.573,0.002-0.859C172.018,551.755,171.216,558.262,171.103,564.855z M352.798,514.569
						c-3.001-4.874-6.733-9.786-11.001-14.291c-0.005,0.141,0.044,0.243,0.11,0.332c1.787,2.261,3.225,4.729,4.368,7.378
						c0.11,0.255,0.285,0.502,0.484,0.696C348.87,510.752,350.994,512.807,352.798,514.569z M367.853,570.258
						c-0.431,1.894-0.89,4.5-1.638,7.025c-0.513,1.726-0.879,3.362-0.702,5.188c0.189,2.001,0.028,4.041,0.015,5.902
						C366.92,582.307,367.696,575.984,367.853,570.258z M197.194,633.591c-1.026-1.622-2.22-3.168-3.037-4.893
						c-1.028-2.163-2.333-3.991-4.193-5.524c-1.338-1.106-2.405-2.533-3.594-3.82C189.447,624.501,193.082,629.229,197.194,633.591z
						 M323.309,484.542c1.778,1.936,3.531,3.86,5.308,5.762c0.252,0.268,0.626,0.43,0.95,0.622c2.231,1.348,4.463,2.69,6.689,4.035
						c0.169,0.099,0.34,0.209,0.506,0.312C332.63,491.225,328.138,487.659,323.309,484.542z M215.701,649.326
						c-0.095,0.086-0.191,0.177-0.29,0.262c-1.146-1.37-2.348-2.709-3.427-4.137c-1.12-1.471-2.46-2.552-4.171-3.286
						c-1.289-0.562-2.446-1.432-3.641-2.196c-0.662-0.426-1.273-0.915-1.907-1.381C206.376,642.645,210.861,646.213,215.701,649.326
						z M248.667,470.848c0.126,0.01,0.249,0.025,0.373,0.025c2.603,0.016,5.209,0.03,7.816,0.04
						c0.222,0.003,0.457,0.012,0.667-0.047c2.692-0.78,5.385-1.578,7.718-2.265C259.913,468.766,254.255,469.508,248.667,470.848z
						 M273.638,665.242c5.292-0.176,11.001-0.894,16.634-2.214c-2.802-0.092-5.597-0.104-8.391-0.116
						c-0.161,0-0.323,0.027-0.473,0.075C278.674,663.777,275.941,664.575,273.638,665.242z M265.262,665.227
						c-1.955-0.449-3.706-0.678-5.319-1.264c-2.345-0.854-4.665-1.252-7.164-0.972c-1.616,0.184-3.271,0.021-4.569,0.018
						C253.499,664.202,259.209,664.996,265.262,665.227z M314.349,654.373c-0.148,0.032-0.29,0.063-0.431,0.101
						c-2.398,0.631-4.798,1.248-7.192,1.89c-0.393,0.104-0.781,0.273-1.132,0.479c-1.573,0.945-3.12,1.937-4.708,2.863
						c-0.691,0.405-1.444,0.696-2.169,1.034C304.167,659.203,309.375,657.094,314.349,654.373z M216.408,484.1
						c-1.651,0.622-11.454,8.042-12.651,9.618c2.067-1.099,4.5-2.393,6.931-3.694c0.165-0.087,0.311-0.222,0.442-0.359
						C212.944,487.755,214.757,485.84,216.408,484.1z M363.224,537.261c-1.675-5.368-3.851-10.711-6.272-15.364
						c0.576,2.374,1.278,5.244,1.982,8.115c0.052,0.212,0.122,0.428,0.239,0.618C360.542,532.883,361.921,535.129,363.224,537.261z
						 M186.998,513.403c1.329-1.347,2.562-2.807,4.013-4.014c1.371-1.138,2.362-2.442,3.138-4.043
						c0.857-1.773,2.003-3.408,3.149-5.313C193.357,504.285,189.96,508.663,186.998,513.403z M224.152,654.25
						c2.493,1.608,13.339,6.094,14.899,6.237c-2.046-1.271-4.417-2.745-6.789-4.213c-0.131-0.083-0.286-0.137-0.441-0.176
						C229.175,655.458,226.53,654.82,224.152,654.25z M356.547,612.643c1.725-2.527,6.365-13.698,6.523-15.604
						c-0.729,1.365-1.339,2.891-2.277,4.175c-1.499,2.043-2.423,4.233-2.844,6.731C357.687,609.502,357.051,611.001,356.547,612.643
						z M239.809,473.108c-2.577,0.478-13.811,5.123-14.843,6.084c2.299-0.533,4.931-1.143,7.55-1.756
						c0.214-0.052,0.43-0.137,0.614-0.249C235.467,475.768,237.793,474.338,239.809,473.108z M351.594,621.162
						c-1.135,1.037-2.598,2.469-4.172,3.762c-0.995,0.818-1.672,1.781-2.262,2.917c-1.056,2.032-2.293,3.973-3.44,5.925
						C345.454,629.718,348.881,625.384,351.594,621.162z M322.483,649.659c4.77-2.836,9.127-6.213,13.203-9.957
						c-1.582,0.932-3.069,2.042-4.719,2.797c-2.003,0.924-3.663,2.132-5.054,3.854C324.922,647.58,323.636,648.569,322.483,649.659z
						 M182.283,521.439c-1.397,1.841-6.187,13.333-6.368,15.189c0.981-1.692,2.005-3.633,3.206-5.451
						c0.744-1.125,1.244-2.248,1.516-3.574C181.079,525.477,181.745,523.401,182.283,521.439z M182.125,612.075
						c-0.565-2.153-1.233-4.692-1.891-7.235c-0.12-0.467-0.097-1.005-0.333-1.396c-1.302-2.175-2.664-4.318-3.866-6.245
						C176.177,598.896,180.775,610.115,182.125,612.075z M365.45,546.693c-0.012,2.663-0.025,5.329-0.03,7.995
						c0,0.155,0.051,0.316,0.109,0.463c1.138,2.853,1.826,5.815,2.213,8.857C367.611,558.167,366.88,552.396,365.45,546.693z
						 M171.22,570.91c0.218,5.033,0.921,10.653,2.207,16.205c0.122-2.576,0.132-5.147,0.132-7.715c0-0.246-0.098-0.496-0.167-0.743
						C172.617,575.882,171.833,573.103,171.22,570.91z M274.633,468.68c2.19,0.642,4.716,1.384,7.235,2.121
						c0.305,0.094,0.616,0.221,0.926,0.224c2.634,0.033,5.267,0.034,7.904,0.046C285.278,469.687,279.785,468.955,274.633,468.68z
						 M300.469,473.585c2.119,1.353,4.173,2.672,6.239,3.972c0.231,0.147,0.542,0.17,0.821,0.245c2.263,0.611,4.53,1.225,6.802,1.83
						c0.114,0.03,0.249,0.006,0.583,0.007C310.13,477.192,305.401,475.191,300.469,473.585z M266.83,533.27
						c1.964,0.01,3.643,0.016,5.321,0.025c-0.683-0.554-1.376-0.958-2.089-1.32c-0.2-0.104-0.519-0.163-0.701-0.077
						C268.593,532.274,267.846,532.713,266.83,533.27z M247.658,541.283c-0.036-0.052-0.069-0.106-0.105-0.161
						c-0.799,0.233-1.598,0.445-2.389,0.703c-0.21,0.073-0.478,0.249-0.539,0.441c-0.292,0.841-0.523,1.7-0.768,2.558
						c0.041,0.035,0.088,0.067,0.133,0.104C245.211,543.71,246.436,542.496,247.658,541.283z M300.011,581.653
						c-0.075-0.036-0.146-0.068-0.216-0.101c-0.863,1.485-1.722,2.967-2.646,4.551c2.113-0.626,3.165-1.8,2.821-3.905
						C299.939,582.022,299.994,581.835,300.011,581.653z M250.48,538.877c0.045,0.064,0.094,0.122,0.137,0.182
						c1.477-0.85,2.954-1.704,4.433-2.563c-0.917-0.137-1.72-0.168-2.512-0.13c-0.25,0.012-0.577,0.155-0.708,0.347
						C251.344,537.41,250.927,538.157,250.48,538.877z M258.21,598.623c0.593,0.675,1.146,1.34,1.746,1.963
						c0.142,0.142,0.467,0.209,0.68,0.166c0.811-0.154,1.608-0.377,2.411-0.575c0.015-0.07,0.028-0.14,0.041-0.214
						C261.447,599.515,259.81,599.06,258.21,598.623z M303.21,564.572c-0.055,0.014-0.102,0.025-0.156,0.036
						c-0.009,1.705-0.019,3.408-0.022,5.111c0.573-0.736,1.013-1.479,1.393-2.251c0.092-0.186,0.065-0.499-0.029-0.692
						C304.03,566.031,303.61,565.306,303.21,564.572z M295.168,588.822c-1.343,1.334-2.521,2.509-3.705,3.684
						c0.893-0.075,1.697-0.27,2.482-0.524c0.176-0.058,0.368-0.273,0.427-0.456C294.639,590.709,294.865,589.878,295.168,588.822z
						 M283.704,597.453c1.12,0.008,1.98,0.033,2.84,0c0.213-0.007,0.494-0.158,0.612-0.333c0.472-0.703,0.89-1.443,1.331-2.174
						c-0.044-0.057-0.089-0.109-0.131-0.172C286.861,595.636,285.364,596.499,283.704,597.453z M280.718,598.657
						c-1.872,0.498-3.522,0.933-5.173,1.372c0.854,0.411,1.674,0.64,2.503,0.819c0.19,0.043,0.484,0.014,0.611-0.113
						C279.308,600.126,279.914,599.479,280.718,598.657z M266.618,600.486c2.324,1.715,3.807,1.691,5.236,0.02
						C270.159,600.501,268.505,600.498,266.618,600.486z M258.574,535.089c1.552-0.413,3.211-0.853,4.875-1.299
						c-0.84-0.383-1.641-0.616-2.461-0.777c-0.239-0.047-0.608,0.021-0.767,0.186C259.638,533.795,259.117,534.451,258.574,535.089z
						 M275.871,533.682c-0.015,0.06-0.026,0.122-0.044,0.182c1.66,0.457,3.32,0.908,4.976,1.365
						c-1.927-2.304-1.928-2.304-4.661-1.635C276.049,533.612,275.962,533.652,275.871,533.682z M291.539,541.281
						c-0.036,0.03-0.066,0.078-0.102,0.117c1.214,1.238,2.432,2.479,3.717,3.798c-0.161-2.06-0.76-3.579-2.986-3.734
						C291.956,541.443,291.746,541.339,291.539,541.281z M237.773,577.948c-0.444-1.658-0.871-3.264-1.303-4.865
						c-0.431,0.837-0.646,1.639-0.818,2.441c-0.039,0.183,0.015,0.47,0.14,0.59C236.403,576.721,237.05,577.289,237.773,577.948z
						 M301.486,555.937c-0.085,0.021-0.17,0.046-0.252,0.071c0.423,1.595,0.849,3.188,1.269,4.788
						c1.063-2.592,1.063-2.592-0.632-4.442C301.738,556.214,301.614,556.074,301.486,555.937z M239.238,581.455
						c-0.073,0.025-0.14,0.052-0.214,0.076c-0.003,0.823-0.027,1.652,0.002,2.471c0.009,0.177,0.157,0.419,0.315,0.521
						c0.707,0.47,1.445,0.905,2.17,1.347c0.055-0.045,0.108-0.081,0.16-0.129C240.86,584.314,240.049,582.884,239.238,581.455z
						 M239.003,552.107c0.076,0.027,0.152,0.062,0.23,0.094c0.844-1.461,1.691-2.922,2.559-4.426
						c-2.32,0.561-3.08,2.029-2.809,4.137C238.99,551.98,238.997,552.042,239.003,552.107z M299.774,552.435
						c0.336-2.95-0.02-3.532-2.508-4.387C298.143,549.579,298.96,551.008,299.774,552.435z M235.953,564.156
						c-0.052-0.015-0.104-0.028-0.159-0.045c-0.444,0.8-0.897,1.593-1.326,2.4c-0.063,0.113-0.056,0.323,0.006,0.444
						c0.425,0.797,0.874,1.583,1.455,2.618C235.934,567.566,235.947,565.859,235.953,564.156z M243.838,588.624
						c0.338,2.824,1.133,3.62,3.79,3.859C246.36,591.191,245.16,589.969,243.838,588.624z M237.843,555.449
						c-2.248,1.747-2.502,2.694-1.377,5.12C236.938,558.815,237.366,557.215,237.843,555.449z M288.437,539.148
						c-1.144-2.699-1.611-2.967-4.347-2.564C285.629,537.495,287.033,538.321,288.437,539.148z M302.702,573.547
						c-0.079-0.007-0.158-0.019-0.24-0.021c-0.417,1.548-0.838,3.106-1.297,4.814c0.752-0.724,1.382-1.303,1.985-1.911
						c0.106-0.105,0.163-0.35,0.127-0.5C303.108,575.13,302.9,574.339,302.702,573.547z M250.559,594.716
						c1.293,2.755,1.617,2.938,4.306,2.526C253.339,596.345,251.947,595.53,250.559,594.716z M264.031,534.249
						c0.014,0.096,0.029,0.193,0.042,0.286c0.845-0.114,1.683-0.227,2.531-0.342c-0.019-0.104-0.034-0.208-0.053-0.312
						C265.71,534.004,264.872,534.126,264.031,534.249z M255.682,536.813c0.046,0.082,0.092,0.172,0.139,0.257
						c0.832-0.353,1.668-0.704,2.499-1.058c-0.039-0.089-0.076-0.185-0.12-0.275C257.362,536.096,256.522,536.454,255.682,536.813z
						 M272.7,533.932c-0.002,0.113-0.008,0.225-0.009,0.336c0.833,0.1,1.658,0.198,2.486,0.301c0.014-0.094,0.024-0.189,0.04-0.289
						C274.378,534.169,273.537,534.05,272.7,533.932z"/>
				</g>
			</g>
		</g>
	</g>
</g>
</svg>
